<?xml version="1.0" encoding="UTF-8"?>
<svg id="b" data-name="Шар 2" xmlns="http://www.w3.org/2000/svg" viewBox="0 0 39.54 28.64">
  <defs>
    <style>
      .d {
        fill: #323333;
      }
    </style>
  </defs>
  <g id="c" data-name="Шар 2">
    <path class="d" d="m34.41,26.56c-.39.39-.72.65-.97.78s-.54.18-.87.18c-1.2,0-2.09-.58-2.72-1.77-.65-1.23-.98-3.03-.98-5.34v-.64c.23-.46.42-.85.56-1.16.15-.32.3-.68.43-1.08.13-.39.28-.85.45-1.41.17-.55.39-1.29.67-2.23.28-.99.55-1.88.8-2.62.25-.76.51-1.47.76-2.08.25-.62.54-1.2.84-1.72.31-.53.65-1.06,1.02-1.6.79-1.24,1.53-1.9,2.11-1.9.12,0,.17.04.23.1l.24.21c.36.36.79.55,1.27.55.39,0,.71-.14.95-.41.23-.26.34-.58.34-.96s-.17-.71-.51-.98c-.75-.6-1.88-.51-3.08.31-.66.45-1.32,1.09-1.95,1.89-.42.55-.81,1.14-1.15,1.73-.35.6-.69,1.29-1.01,2.04-.33.77-.65,1.61-.97,2.52-.33.94-.68,2.01-1.03,3.19l-.42,1.34c-.11.35-.21.68-.31.96-.07.23-.15.46-.24.69l-.05-2.26-.03-2.83c-.06-1.67-.17-3.02-.35-4.03-.17-.94-.45-1.76-.83-2.45.25-.19.48-.36.69-.51.25-.18.52-.34.79-.47.27-.13.59-.26.95-.38.35-.12.8-.24,1.34-.37l.23-.06-.18-.94-.25.06c-.98.23-1.8.48-2.42.76-.56.24-1.1.57-1.63.97-1-1.5-2.18-2.66-3.52-3.44-1.42-.82-3.01-1.24-4.75-1.24-1.32,0-2.55.24-3.67.72-1.09.47-2.04,1.13-2.85,1.97h-.56c-.97,0-1.97.14-2.98.41-1.01.28-1.99.69-2.91,1.24-1.9,1.08-3.37,2.52-4.36,4.28-1,1.76-1.5,3.77-1.5,5.99,0,1.72.3,3.35.9,4.83.6,1.48,1.44,2.78,2.49,3.88,1.06,1.09,2.31,1.96,3.74,2.58,1.43.62,3,.93,4.66.93,2.34,0,4.35-.56,5.98-1.65,1.63-1.09,2.92-2.7,3.83-4.77.1-.23.18-.45.26-.65.08-.21.16-.48.25-.81.08-.32.19-.73.31-1.24.12-.5.29-1.17.49-1.99.33-1.4.68-2.66,1.02-3.75.34-1.1.68-2.05.98-2.81.22-.46.44-.87.65-1.24.14-.25.33-.53.56-.84,0,.02,0,.04,0,.05.03.18.05.37.07.57.02.2.03.42.03.68v.92c0,.37,0,.73-.01,1.07l-.03,1.06c-.01.36-.03.75-.06,1.17l-.1,1.41c-.07.96-.13,1.91-.17,2.82-.04.9-.06,1.58-.06,2.04,0,1.47.1,2.76.3,3.84.2,1.1.53,2.03.97,2.75.56.98,1.29,1.77,2.18,2.33.9.56,1.83.85,2.79.85,1.33,0,2.38-.5,3.11-1.47l.15-.2-.73-.57-.16.16Zm-10.43-17.84c-.29.62-.59,1.39-.91,2.28-.31.88-.67,1.97-1.07,3.24-.15.38-.28.77-.37,1.15-.09.37-.21.73-.36,1.1-.11.32-.2.59-.27.81l-.17.56c-.04.15-.09.29-.13.42-.04.12-.1.25-.18.42-.32.91-.63,1.68-.94,2.31-.31.63-.62,1.15-.93,1.55-1.6,2.2-3.94,3.31-6.94,3.31-1.47,0-2.87-.28-4.15-.82-1.28-.54-2.4-1.3-3.33-2.26-.93-.95-1.68-2.09-2.22-3.38-.54-1.29-.81-2.69-.81-4.16,0-1.58.29-3.1.86-4.5.57-1.4,1.36-2.64,2.34-3.68s2.14-1.87,3.45-2.48c1.17-.54,2.42-.85,3.72-.9-.28.45-.51.87-.7,1.24-.2.4-.37.77-.49,1.12-.13.36-.22.73-.26,1.09-.05.36-.07.75-.07,1.17,0,.94.16,1.83.48,2.65.32.82.77,1.54,1.34,2.14.57.6,1.25,1.08,2.01,1.43.77.35,1.61.53,2.5.53.31,0,.58-.01.83-.04.25-.03.5-.08.75-.15.26-.07.52-.16.81-.29.12-.06.26-.12.4-.19-.27.65-.6,1.27-.98,1.84-.49.73-1.06,1.37-1.69,1.89-.63.52-1.33.94-2.06,1.23-1.43.58-3.07.59-4.37.03-.64-.28-1.2-.66-1.67-1.14-.47-.48-.84-1.05-1.11-1.71-.27-.66-.4-1.39-.4-2.17,0-.62.11-1.23.32-1.82l.09-.26-.94-.23-.08.21c-.16.42-.26.79-.31,1.1-.05.3-.07.65-.07,1.03,0,.95.17,1.83.5,2.62.33.79.8,1.48,1.39,2.05.59.56,1.3,1.01,2.11,1.33.81.32,1.71.48,2.67.48,1.03,0,2.01-.18,2.89-.52.88-.35,1.68-.85,2.38-1.49.69-.64,1.28-1.44,1.75-2.37.46-.91.8-1.94,1.03-3.08.32-.33.61-.64.85-.95.26-.33.49-.67.68-1.03.19-.35.37-.74.53-1.16.16-.41.33-.89.49-1.41l.07-.23-.92-.35-.08.26c-.26.88-.53,1.6-.81,2.12-.19.35-.42.71-.69,1.05v-.17c0-.61-.07-1.25-.22-1.89-.14-.64-.35-1.26-.62-1.87-.27-.6-.59-1.17-.96-1.68-.38-.52-.79-.97-1.23-1.33-1.13-.93-2.51-1.56-4.1-1.89.74-.59,1.49-1.05,2.23-1.35.87-.36,1.9-.54,3.06-.54.86,0,1.69.13,2.45.39.77.26,1.51.63,2.19,1.1.59.41,1.05.86,1.36,1.35.32.5.63,1.14.93,1.92l.04.11c-.36.4-.69.82-.97,1.23-.31.45-.62,1.01-.92,1.65Zm-4.75-.02c.34.94.52,1.91.52,2.88,0,.23-.01.45-.04.65-.02.18-.07.42-.15.7-.66.41-1.21.71-1.64.88-.43.17-.97.26-1.59.26-.73,0-1.42-.15-2.05-.45-.64-.3-1.21-.72-1.69-1.23-.48-.52-.86-1.13-1.14-1.83-.28-.7-.42-1.46-.42-2.26,0-.86.15-1.67.43-2.42.27-.71.71-1.46,1.3-2.24,1.14.22,2.13.53,2.93.93.84.41,1.57.98,2.17,1.67.56.69,1.02,1.51,1.36,2.45Z"/>
  </g>
</svg>