<?xml version="1.0" encoding="UTF-8"?>
<svg id="b" data-name="Шар 2" xmlns="http://www.w3.org/2000/svg" viewBox="0 0 30.95 34.02">
  <defs>
    <style>
      .d {
        fill: #323333;
      }
    </style>
  </defs>
  <g id="c" data-name="Шар 2">
    <g>
      <path class="d" d="m7.54,29.44c-.56-.21-1.11-.41-1.67-.61-.18-.06-.35-.13-.53-.19-1.15-.39-2.07-1.65-2.02-3,0-.06,0-.13,0-.21-.45.09-.89.12-1.31,0-1.03-.31-1.73-.96-1.94-2.04-.22-1.11.13-2.05,1.03-2.74.9-.69,1.83-1.34,2.76-2,.59-.43,1.19-.84,1.8-1.26.25-.17.42-.38.55-.65.71-1.45,1.42-2.89,2.15-4.33.2-.39.44-.77.73-1.09.78-.89,1.8-1.27,2.97-1.28.7,0,1.4,0,2.1,0,.23,0,.45-.03.68-.05-1.4-.21-2.55-.82-3.38-1.97-.81-1.14-1.19-2.4-.94-3.79C10.98,1.61,13.22-.16,15.84.01c2.55.16,4.61,2.25,4.65,4.95.04,2.52-1.75,4.67-4.38,5.05.11.01.21.03.32.03.8,0,1.61,0,2.41,0,1.69,0,2.93.74,3.69,2.25.74,1.47,1.47,2.95,2.19,4.43.14.28.32.5.57.68,1.47,1.04,2.94,2.08,4.4,3.13.71.51,1.16,1.17,1.23,2.06.1,1.25-.65,2.39-1.84,2.79-.44.15-.89.17-1.34.08-.03,0-.07,0-.11-.01-.01.24,0,.48-.04.7-.22,1.2-.88,2.05-2.02,2.49-.66.26-1.34.49-2.01.74-.06.02-.12.05-.16.06.1.35.23.68.28,1.02.22,1.41-.55,2.76-1.87,3.3-.75.31-1.5.33-2.26.05-1.31-.48-2.62-.96-3.93-1.42-.11-.04-.25-.03-.36,0-1.31.47-2.61.95-3.91,1.42-1.33.48-2.75.08-3.57-1.05-.7-.97-.82-2.03-.34-3.13.02-.05.04-.1.07-.15,0,0,0-.01,0-.05Zm7.93-17.85s0,0,0,0c-1.16,0-2.31,0-3.47,0-.17,0-.35,0-.52.03-.76.16-1.3.61-1.65,1.3-.82,1.62-1.63,3.23-2.44,4.85-.13.26-.31.47-.55.64-1.55,1.1-3.09,2.2-4.64,3.3-.13.09-.26.19-.36.31-.32.38-.42.82-.21,1.28.21.45.57.68,1.08.68.29,0,.54-.12.77-.29,1.7-1.21,3.4-2.43,5.11-3.64.31-.22.54-.49.7-.83.24-.52.5-1.03.77-1.54.07-.13.15-.27.25-.37.2-.19.44-.27.72-.19.28.08.48.26.52.55.04.25.04.52.04.78,0,1.91,0,3.82,0,5.73,0,.06.07.16.12.18,1.19.44,2.37.88,3.57,1.31.11.04.27.03.38,0,1.16-.42,2.32-.85,3.49-1.27.16-.06.19-.13.19-.28,0-2.02,0-4.04,0-6.06,0-.13,0-.26.04-.38.08-.31.29-.5.6-.56.29-.05.53.06.71.29.06.08.11.17.16.26.29.57.57,1.13.85,1.7.13.26.32.46.55.63,1.66,1.18,3.32,2.36,4.98,3.54.18.13.36.25.56.33.44.18.86.08,1.22-.22.34-.28.42-.66.33-1.08-.08-.37-.32-.64-.63-.85-1.56-1.11-3.12-2.22-4.67-3.35-.16-.12-.31-.27-.41-.44-.23-.39-.43-.8-.63-1.2-.64-1.27-1.26-2.54-1.91-3.8-.45-.87-1.16-1.34-2.17-1.33-1.15.02-2.31,0-3.47,0Zm6.76,19.28s0-.12-.01-.2c0-.04-.01-.07-.02-.11-.14-.62-.54-.99-1.12-1.2-3.23-1.17-6.45-2.34-9.68-3.52-1.45-.53-2.89-1.05-4.34-1.58-.33-.12-.66-.16-1-.07-.66.16-1.16.74-1.22,1.38-.06.69.33,1.34.98,1.6.62.25,1.26.46,1.88.69,2.14.78,4.28,1.57,6.42,2.35,1.04.38,2.09.75,3.13,1.13.95.34,1.89.71,2.84,1.03,1.06.37,2.11-.38,2.11-1.51Zm-6.77-22.38c1.91,0,3.46-1.53,3.5-3.42.04-1.97-1.58-3.57-3.54-3.55-1.84.02-3.41,1.56-3.44,3.4-.04,2.01,1.65,3.62,3.48,3.58Zm2.29,18.03c.06.03.09.05.13.06.75.27,1.51.54,2.26.83.68.26,1.36.53,2.04.79.06.02.15.02.21,0,.92-.34,1.85-.66,2.77-1.02.66-.26,1.02-.95.93-1.66-.09-.67-.64-1.22-1.32-1.34-.35-.06-.67.02-.99.13-1.95.71-3.9,1.42-5.85,2.13-.05.02-.1.05-.17.1Zm-4.51,4.99c-.09-.04-.13-.06-.17-.08-1.3-.47-2.61-.95-3.91-1.43-.12-.04-.17,0-.23.1-.31.54-.28,1.22.1,1.7.43.56,1.11.8,1.77.58.81-.27,1.6-.57,2.44-.88Zm-3.19-10.66c-.9.64-1.77,1.27-2.68,1.92.91.32,1.78.64,2.68.96v-2.87Zm13.49,1.91c-.89-.65-1.76-1.28-2.64-1.92v2.87c.89-.32,1.75-.63,2.64-.96Z"/>
      <path class="d" d="m29.4,12.37c.23,0,.44-.02.65,0,.18.02.36.05.52.13.28.14.42.48.37.77-.06.34-.28.58-.62.62-.29.03-.59,0-.91,0,0,.24,0,.46,0,.69,0,.3-.09.56-.35.74-.44.3-1.09.04-1.17-.49-.04-.29-.03-.59-.05-.92-.1,0-.21,0-.31,0-.17,0-.35,0-.52-.03-.37-.04-.65-.35-.67-.72-.02-.35.22-.69.58-.76.22-.04.44-.03.67-.05.09,0,.18,0,.29,0,0-.15,0-.29,0-.42,0-.15,0-.3.01-.45.05-.38.36-.66.74-.67.34-.01.69.25.75.62.04.25.03.5.04.76,0,.05,0,.1,0,.17Z"/>
      <path class="d" d="m3.86,6.17c0-.23,0-.45,0-.68,0-.3.1-.56.36-.73.46-.31,1.09-.02,1.16.55.03.21.02.42.02.63,0,.23,0,.23.24.23.21,0,.42,0,.63.02.38.04.64.34.67.72.02.35-.22.7-.59.76-.24.05-.49.04-.74.04-.23,0-.23,0-.22.23,0,.2.03.4,0,.6-.04.4-.32.68-.68.7-.42.02-.75-.21-.82-.63-.04-.23-.03-.47-.04-.7,0-.06,0-.12,0-.2-.24,0-.47,0-.7,0-.48-.01-.82-.33-.83-.76,0-.45.32-.77.81-.79.23,0,.46,0,.71,0Z"/>
      <path class="d" d="m25.55,6.19c0-.42.35-.77.77-.77.39,0,.76.38.75.76,0,.41-.38.77-.79.77-.42,0-.73-.33-.73-.76Z"/>
      <path class="d" d="m0,13.15c0-.42.34-.77.77-.78.39,0,.76.37.76.76,0,.41-.37.77-.78.77-.42,0-.74-.32-.74-.75Z"/>
    </g>
  </g>
</svg>