<?xml version="1.0" encoding="UTF-8"?>
<svg id="b" data-name="Шар 2" xmlns="http://www.w3.org/2000/svg" viewBox="0 0 38.13 34.02">
  <defs>
    <style>
      .d {
        fill: #323333;
      }
    </style>
  </defs>
  <g id="c" data-name="Шар 2">
    <g>
      <path class="d" d="m34.95,22.73c-.92.32-1.84.64-2.76.97l-5.78,2.03c-.31.11-.62.21-.93.32l-.24.08s0-.05,0-.08c.04-1.36-.85-2.51-2.11-2.72-.62-.11-1.27-.09-1.9-.07-.18,0-.36,0-.54.01-.38,0-.61.38-.61.74,0,.31.24.6.56.68.1.02.21.03.33.03.25,0,.51,0,.76,0,.28,0,.56,0,.84,0,.57,0,1.06.42,1.19,1.02.12.55-.18,1.14-.69,1.37-.22.1-.48.1-.73.1h-5.17c-.25-.02-.59.02-.85.26-.45.42-.79.76-1.09,1.09-.14.15-.2.35-.17.56.03.22.17.41.37.52.3.16.58.12.85-.13.29-.27.52-.5.73-.72.08-.09.16-.12.3-.12h0c.79,0,1.58,0,2.38,0,.92,0,1.85,0,2.77,0h.01c.59,0,1.14-.17,1.66-.53.15-.1.31-.19.46-.24,2.03-.72,4.06-1.43,6.09-2.14l2.33-.82c.77-.27,1.54-.54,2.31-.81.44-.15.8-.07,1.07.24.19.23.28.52.23.8-.05.27-.21.5-.46.65-.26.16-.55.3-.83.43-.14.07-.28.14-.42.21l-1.34.69c-1.34.69-2.68,1.38-4.01,2.07l-.93.48c-1.43.74-2.87,1.49-4.3,2.24-.78.41-1.54.61-2.31.61-1.57,0-3.16,0-4.74,0-1.43,0-2.86,0-4.29,0-.77,0-1.58.03-2.22-.08-.88-.15-1.67-.53-2.34-1.15-.31-.28-.64-.41-1.09-.41h-.01c-1.46,0-2.91,0-4.36,0h-1.87c-.14,0-.29,0-.43.02-.37.05-.63.33-.64.69,0,.37.27.69.64.74.12.02.25.02.37.02h.52c1.9,0,3.8,0,5.7-.01.14,0,.24.03.34.13,1.11.97,2.44,1.47,3.97,1.48,1.5,0,3,.01,4.5.01,1.03,0,2.06,0,3.09,0h2.82c.79,0,1.41-.11,1.96-.35.74-.31,1.5-.67,2.41-1.14,1.41-.72,2.82-1.46,4.22-2.19l2.17-1.13c.45-.23.89-.46,1.34-.69.92-.47,1.88-.95,2.79-1.47.69-.38,1.13-1.03,1.22-1.76.09-.76-.21-1.54-.8-2.09-.65-.61-1.46-.77-2.32-.47Z"/>
      <path class="d" d="m37.54,9.34c-.1-.02-.21-.03-.33-.03h-1.52c-1.09,0-2.17,0-3.26,0-.54,0-1.01.13-1.43.42-.64.44-1.38.66-2.21.66-.02,0-.04,0-.06,0-.91-.01-1.82,0-2.73,0h-1.03c-.77,0-1.43-.26-1.98-.79-.2-.19-.42-.28-.7-.28h0c-.8,0-1.6,0-2.4,0-1.41,0-2.82,0-4.22,0h-.01c-.36,0-.71-.15-.96-.41-.16-.17-.35-.47-.33-.9.03-.56.4-1.04.91-1.15.18-.04.39-.04.59-.04h.07c1.7,0,3.41,0,5.11,0h0c.35,0,.64-.11.86-.33l.16-.15c.27-.26.55-.53.81-.82.12-.13.2-.34.21-.54.01-.27-.15-.49-.43-.62-.26-.12-.52-.08-.73.11-.28.26-.55.53-.82.81-.06.07-.12.09-.21.09-1.73,0-3.46,0-5.18-.01h-.02c-.61,0-1.16.18-1.67.54-.14.1-.31.19-.48.25-.38.14-.77.28-1.15.41l-2.72.95c-1.61.56-3.22,1.12-4.83,1.69-.28.1-.56.2-.84.3-.41.15-.81.3-1.22.43-.52.17-1.03-.06-1.19-.53-.12-.37-.15-.87.41-1.18.29-.16.58-.3.87-.45.16-.08.31-.16.47-.24l5.45-2.81.27-.14c.3-.15.6-.31.9-.47.34-.19.46-.58.29-.94-.18-.36-.55-.5-.93-.35-.1.04-.2.09-.3.14l-1.33.68c-1.1.57-2.2,1.14-3.3,1.71l-.74.38c-.77.4-1.57.81-2.35,1.24-1.17.64-1.58,1.93-.99,3.13.48.97,1.5,1.52,2.52,1.31.28-.06.55-.16.81-.25l.23-.08c1.89-.66,3.79-1.33,5.68-2l3.36-1.18v.04c-.07,1.15.57,2.19,1.62,2.65.35.15.72.22,1.21.22h0c1.1,0,2.2,0,3.31,0h2.89s0,0,0,0c.14,0,.22.03.31.09.78.63,1.68.96,2.66.96h.33c.62,0,1.26.01,1.89.01.59,0,1.19,0,1.78-.02,1.03-.02,2.02-.33,2.96-.93.1-.07.25-.11.36-.11,1.16,0,2.31,0,3.46,0h1.42c.1,0,.21,0,.32-.01.37-.04.65-.32.67-.69.02-.34-.24-.66-.59-.74Z"/>
      <path class="d" d="m11.7,3.1c.11,0,.22-.03.34-.09l.42-.21c.43-.22.86-.44,1.28-.67.8-.45,1.6-.66,2.45-.66h0c1.63,0,3.26,0,4.9,0,1.79,0,3.57,0,5.36,0,.38,0,.76.04,1.12.11.8.15,1.54.55,2.22,1.16.26.24.53.35.86.35h0c1.51,0,3.03,0,4.54,0h1.95c.12,0,.24,0,.36-.02.35-.06.62-.37.62-.72,0-.33-.27-.64-.61-.7-.13-.02-.26-.02-.38-.02-2.05,0-4.11,0-6.16.02h0c-.2,0-.32-.04-.45-.15-1.14-.98-2.51-1.48-4.09-1.48h-.03c-1.16,0-2.33,0-3.49,0h-1.53S16.67,0,16.67,0c-.54,0-1.17.01-1.78.15-1.13.26-2.12.82-3.09,1.36-.17.09-.33.19-.5.28-.15.08-.25.27-.3.41-.08.27,0,.54.25.73.14.11.29.17.45.17Z"/>
      <path class="d" d="m15.65,18.45c.77.84,1.55,1.68,2.34,2.51.12.13.27.27.44.38.2.12.42.18.64.18.34,0,.67-.14.93-.41.26-.27.51-.55.75-.82.13-.15.27-.3.4-.45.21-.23.42-.46.63-.68.43-.46.86-.93,1.27-1.4.83-.95,1-2.12.45-3.23-.4-.81-1.1-1.36-1.96-1.54-.86-.18-1.74.02-2.42.57-.05.04-.11.09-.09.1-.02,0-.08-.06-.14-.1-.55-.42-1.14-.64-1.79-.66h-.03c-.06.01-.13.02-.19.02-.15.02-.31.03-.46.07-.93.24-1.69.92-2.03,1.83-.32.86-.2,1.78.32,2.53.23.33.51.63.78.92l.16.17Zm2.82-3.34c.35.34.75.34,1.11,0,.07-.06.13-.13.19-.19.08-.08.15-.16.23-.23.51-.46,1.45-.42,1.93.08.53.55.57,1.38.1,1.94-.26.3-.53.59-.8.88-.16.17-.32.34-.48.51-.49.53-.97,1.07-1.45,1.61l-.25.28-.21-.23c-.22-.24-.44-.48-.66-.71-.68-.73-1.37-1.47-2.05-2.2-.54-.57-.62-1.32-.21-1.89.24-.33.6-.54,1.01-.59.06,0,.12-.01.17-.01.35,0,.68.12.94.35.11.09.21.2.31.3l.1.1Z"/>
      <path class="d" d="m3.19,23.25h-.59c-.63,0-1.27,0-1.9,0-.38,0-.68.29-.7.68-.02.37.22.68.59.76.1.02.2.03.33.03h1.5c1.14,0,2.27,0,3.4,0h.02c.47,0,.88-.13,1.25-.4.61-.45,1.34-.67,2.18-.67.47,0,.95,0,1.42,0,.76,0,1.53,0,2.29,0,.02,0,.04,0,.06,0,.87,0,1.55.26,2.09.8.18.18.4.28.7.27.46,0,.91,0,1.37,0h1.12c.12,0,.23-.02.34-.04.32-.09.52-.34.52-.67,0-.32-.22-.63-.52-.71-.16-.04-.32-.05-.48-.05-.3,0-.6,0-.9,0-.38,0-.77,0-1.15,0-.1,0-.16-.02-.18-.03-.81-.69-1.76-1.02-2.9-1.02h-.02c-.56,0-1.12,0-1.69,0-.61,0-1.21,0-1.82,0-1.3,0-2.4.33-3.37,1-.05.03-.12.05-.19.06-.66,0-1.32,0-1.99,0h-.79Z"/>
      <path class="d" d="m11.35,12.19c.24-.37.53-.72.81-1.07.12-.15.24-.29.35-.44.1-.12.27-.35.19-.66-.08-.29-.27-.47-.55-.54-.38-.1-.63.17-.75.3-1.86,2-2.84,4.42-2.9,7.2h0c.02,1.37.28,2.67.75,3.89.04.11.09.21.15.28.14.18.33.28.55.28.06,0,.12,0,.19-.02.3-.07.5-.3.53-.6.01-.13-.02-.28-.08-.45-.49-1.25-.68-2.54-.6-3.95.09-1.56.55-2.98,1.37-4.22Z"/>
      <path class="d" d="m27.71,19.91c-.04.13-.08.25-.12.38-.05.16-.13.42.03.68.15.24.36.36.62.36.03,0,.05,0,.08,0,.28-.03.49-.19.6-.47.48-1.23.72-2.53.74-3.88h0c0-.82-.1-1.64-.31-2.44-.12-.46-.27-.95-.47-1.5-.13-.37-.5-.54-.89-.41-.37.12-.56.48-.46.86.03.11.07.22.11.33.6,1.6.73,3.32.36,5.12-.07.32-.17.65-.27.96Z"/>
      <path class="d" d="m5.59,14.48c.02-.13.05-.26.07-.4.05-.33-.12-.65-.42-.78-.3-.13-.65-.04-.83.22-.08.11-.14.24-.16.39-.24,1.2-.36,2.18-.37,3.11l.04.54c.03.44.07.88.11,1.32.04.36.1.73.19,1.13.07.34.35.56.68.56.04,0,.09,0,.13-.01.38-.06.62-.38.6-.77,0-.11-.03-.23-.05-.34v-.07c-.27-1.42-.29-2.86-.07-4.42.02-.16.05-.31.08-.47Z"/>
      <path class="d" d="m32.6,19.15c-.03.19-.05.38-.08.57-.03.26.06.49.24.65.13.11.29.17.46.17.06,0,.13,0,.19-.03.31-.08.5-.3.55-.63.12-.75.26-1.72.26-2.73h.06s-.09-.86-.09-.86c-.06-.56-.11-1.12-.18-1.68-.03-.27-.09-.55-.17-.86-.1-.38-.46-.59-.86-.51-.36.08-.59.43-.53.82.01.09.03.18.05.3.25,1.23.3,2.54.17,4-.02.26-.06.52-.1.77Z"/>
      <path class="d" d="m26.59,22.21c-.34.4-.68.8-1.01,1.2-.18.22-.2.49-.06.75.14.25.35.38.67.41h.05s.05-.02.05-.02c.02,0,.03-.01.06-.02.08-.03.2-.08.28-.17.35-.4.73-.84,1.07-1.3.1-.14.15-.3.12-.47-.03-.19-.14-.36-.3-.48-.31-.22-.69-.18-.94.1Z"/>
    </g>
  </g>
</svg>