<?xml version="1.0" encoding="UTF-8"?>
<svg id="b" data-name="Шар 2" xmlns="http://www.w3.org/2000/svg" viewBox="0 0 34.09 34.02">
  <defs>
    <style>
      .d {
        fill: #323333;
      }
    </style>
  </defs>
  <g id="c" data-name="Шар 2">
    <g>
      <path class="d" d="m13.43,5.92c1.65-3.16,5.66-3.16,7.28-.03,1.9-1.1,3.8-.63,4.6,1.12.69,1.52.27,3.92-.89,5.11-.04.04-.06.12-.13.26.39.11.76.21,1.13.31,1.59.45,2.4,1.47,2.46,3.12q.06,1.83-1.79,1.83h-1.93c0,.82,0,1.59,0,2.36-.01.75-.21.95-.95.95-1.13,0-2.26,0-3.39,0-.49,0-1-.03-1.01-.67-.02-.67.5-.68.99-.67.09,0,.17-.01.39-.03,0-.36,0-.73,0-1.09,0-.45.1-.88.66-.89.56-.01.68.4.69.87,0,.35,0,.7,0,1.1h1.23c0-.79.1-1.57-.03-2.32-.16-.95-.81-1.61-1.72-1.95q-2.01-.75-2.87,1.19c-.12.28-.21.6-.39.84-.18.24-.45.52-.71.54-.21.02-.52-.28-.65-.52-.36-.69-.66-1.4-.94-2.12-.14-.35-.33-.48-.7-.37-.34.1-.69.17-1.03.25-1.63.39-2.39,1.34-2.41,3.02,0,.46,0,.92,0,1.43h1.29c0-.38,0-.72,0-1.07,0-.45.1-.89.65-.9.6,0,.69.45.69.93,0,.33,0,.66,0,1.04.22.02.39.06.55.05.45,0,.76.2.77.64.01.49-.33.69-.79.7-.64,0-1.29,0-1.93,0-.58,0-1.15,0-1.73,0-.57,0-.86-.28-.85-.86,0-.79,0-1.59,0-2.46-.96,0-1.86,0-2.76,0-.76,0-.94-.17-.95-.94,0-.55-.04-1.12.08-1.65.27-1.2,1.04-1.98,2.22-2.33.41-.12.84-.22,1.36-.36-.21-.22-.34-.36-.47-.49-1.24-1.27-1.3-4.29-.13-5.61,1.06-1.18,2.57-1.32,4.12-.35Zm1.13,2.95c-.01.19-.02.27-.03.36-.06,1.14.33,2.05,1.38,2.59.93.47,1.85.39,2.69-.22.96-.7,1.08-1.72.99-2.8-.01-.13-.12-.28-.23-.35-.36-.24-.74-.45-1.11-.66-1.08.97-2.32,1.16-3.69,1.08Zm6.3,4.99c1.33.35,2.26,1.04,2.86,2.15.07.13.25.28.38.29.79.03,1.58.01,2.36.01.2-1.29-.28-2-1.41-2.37-.77-.25-1.87.04-2.15-1.16,0-.01-.03-.02-.04-.03h-.61c.01.93-.8.81-1.4,1.1Zm-13.22,2.45c.82,0,1.59,0,2.36,0,.13,0,.32-.09.37-.2.58-1.19,1.57-1.88,2.92-2.27-.41-.13-.75-.16-.98-.33-.24-.18-.37-.49-.57-.76h-.52c-.06.61-.42.88-1,.95-.3.04-.6.15-.9.22-1.35.32-1.79.92-1.68,2.4Zm11.85-9.45c-.24-1.25-1.43-2.13-2.7-1.97-1.33.17-2.3,1.3-2.19,2.77.76-.17,1.52-.28,2.22-.53.45-.16.81-.74,1.24-.78.45-.05.95.32,1.43.5Zm-6.33,2.27c-1.1.14-2.16.27-3.23.41-.22,1.09.85,1.89,1.63,1.86,1.12-.05,1.72-.9,1.6-2.27Zm11.05.41c-1.1-.14-2.17-.28-3.23-.42-.13,1.35.46,2.2,1.55,2.27.99.06,1.89-.96,1.67-1.85Zm-11.13-1.81c-.52-.95-1.14-1.26-1.86-1.13-.67.13-1.14.65-1.29,1.59,1.05-.15,2.04-.3,3.15-.46Zm8.07-.17c1,.53,2.01.6,3.08.47-.26-.92-.75-1.37-1.45-1.44-.72-.07-1.23.22-1.63.97Zm-5,5.86c.31.74.58,1.39.85,2.03.05,0,.11-.01.16-.02.25-.65.51-1.3.79-2.02h-1.8Zm-3.04-1.06c.61.15,1.06.25,1.63.39-.37-.4-.65-.71-.96-1.04-.2.19-.39.37-.68.64Zm6.26.41c.64-.17,1.09-.28,1.65-.43-.29-.27-.47-.44-.67-.62-.3.32-.57.61-.99,1.05Z"/>
      <path class="d" d="m29.63,20.42c0-.55,0-1.08,0-1.6,0-2.02-.02-4.03,0-6.05.03-1.71,1.35-2.75,2.86-2.3.91.27,1.58,1.09,1.58,2.07.02,3.59.03,7.18,0,10.77-.01,1.2-.44,2.3-1.13,3.28-1.63,2.32-3.28,4.62-4.92,6.94-.26.37-.57.68-1.04.36-.5-.33-.34-.75-.05-1.15,1.54-2.16,3.06-4.34,4.62-6.49.82-1.14,1.23-2.37,1.21-3.78-.03-3.19,0-6.38-.03-9.57,0-.34-.15-.76-.38-.99-.44-.44-1.2-.15-1.34.48-.05.23-.05.48-.05.73,0,2.42-.02,4.83,0,7.25.01,1.54-.48,2.85-1.58,3.95-.93.92-1.8,1.9-2.69,2.85-.33.35-.69.65-1.13.24-.44-.4-.19-.8.14-1.15.96-1.02,1.92-2.03,2.87-3.05.4-.43.57-.91.24-1.44-.29-.47-.77-.71-1.25-.41-1.95,1.22-3.97,2.36-5.15,4.48-.81,1.44-1.03,3.04-1.38,4.62-.2.93-.38,1.86-.58,2.79-.09.44-.27.86-.82.75-.55-.12-.61-.53-.49-1.04.37-1.66.7-3.33,1.06-4.99.57-2.61,2-4.64,4.2-6.15.66-.45,1.32-.89,1.98-1.33,1.08-.72,1.44-.73,3.22-.05Z"/>
      <path class="d" d="m4.49,20.53c1.31-.94,2.41-.71,3.49.1.87.65,1.82,1.2,2.65,1.88,1.78,1.45,2.84,3.37,3.32,5.6.34,1.6.65,3.21,1,4.8.11.5.08.93-.48,1.05-.59.13-.75-.34-.84-.8-.37-1.73-.7-3.47-1.1-5.19-.46-1.97-1.53-3.57-3.16-4.77-.82-.6-1.68-1.15-2.52-1.73-.51-.35-1-.36-1.44.09-.42.44-.4,1.04.08,1.55.89.96,1.79,1.91,2.69,2.86.15.16.38.31.42.5.06.28.09.71-.07.86-.16.15-.58.07-.87,0-.14-.03-.25-.23-.38-.36-.87-.92-1.71-1.86-2.6-2.75-1.06-1.07-1.55-2.33-1.54-3.83.01-2.39,0-4.79,0-7.18,0-.22,0-.44-.01-.66-.03-.56-.36-.88-.89-.87-.53.01-.84.36-.87.91-.01.18,0,.35,0,.53,0,3.04.03,6.07-.01,9.11-.02,1.55.37,2.92,1.34,4.14.29.36.54.76.8,1.14.23.35.19.75-.17.91-.23.1-.72.04-.87-.13C1.04,26.57-.08,24.74,0,22.32c.11-3.21.03-6.43.03-9.64,0-.95.42-1.67,1.27-2.09.84-.42,1.64-.29,2.37.27.65.5.82,1.22.82,2.01,0,2.26,0,4.52,0,6.78,0,.24,0,.48,0,.88Z"/>
      <path class="d" d="m6.74,34s-.19-.02-.25-.09c-.46-.61-.92-1.22-1.31-1.87-.08-.13.11-.56.28-.64.2-.1.63-.08.76.07.45.51.84,1.07,1.18,1.66.22.38-.16.86-.66.87Z"/>
      <path class="d" d="m17.71,1.13c0,.2.08.45-.02.58-.16.22-.42.48-.65.5-.19.02-.54-.26-.59-.47-.1-.4-.11-.85,0-1.24.06-.22.42-.51.64-.5.22,0,.47.32.62.55.09.14.02.39.02.59,0,0,0,0,0,0Z"/>
      <path class="d" d="m14.8,2.57c.02.5-.55.87-.96.58-.35-.25-.68-.57-.93-.92-.31-.43.02-.97.54-.97.43,0,1.33.88,1.35,1.31Z"/>
      <path class="d" d="m20.15,3.27c-.69-.02-1.01-.59-.72-1.01.24-.34.54-.67.88-.87.2-.11.65-.06.8.1.14.15.16.62.03.8-.3.41-.73.72-1,.97Z"/>
      <path class="d" d="m4.25,30.75c-.16-.27-.43-.52-.46-.8-.04-.4.29-.69.68-.58.25.07.58.41.57.63,0,.26-.32.51-.5.77-.09,0-.19,0-.28-.01Z"/>
      <path class="d" d="m17.12,21.23c-.34-.42-.63-.63-.69-.9-.09-.39.2-.73.6-.67.25.04.63.35.64.56.02.26-.28.54-.55,1.01Z"/>
    </g>
  </g>
</svg>