<?xml version="1.0" encoding="UTF-8"?>
<svg id="b" data-name="Шар 2" xmlns="http://www.w3.org/2000/svg" viewBox="0 0 9.01 9">
  <defs>
    <style>
      .d {
        fill: #323232;
      }
    </style>
  </defs>
  <g id="c" data-name="Шар 2">
    <g>
      <path class="d" d="m9.01,4.5c0,.67,0,1.33,0,2,0,.59-.17,1.13-.55,1.59-.37.46-.86.75-1.44.87-.17.03-.33.05-.5.05-1.35,0-2.7,0-4.05,0-.68,0-1.28-.24-1.76-.72-.36-.36-.58-.79-.67-1.29C.01,6.82,0,6.64,0,6.47,0,5.14,0,3.82,0,2.5c0-.36.06-.71.21-1.04C.57.69,1.16.23,1.98.05,2.16,0,2.34,0,2.52,0,3.85,0,5.18,0,6.52,0c.6,0,1.14.18,1.61.57.43.35.7.81.83,1.35.05.2.06.4.06.6,0,.67,0,1.33,0,2ZM4.5.53c-.69,0-1.37,0-2.06,0-.11,0-.23,0-.34.03-.91.16-1.57.95-1.57,1.87,0,1.38,0,2.76,0,4.15,0,.08,0,.16.02.24.06.48.28.88.65,1.2.37.32.8.46,1.28.46,1.37,0,2.74,0,4.1,0,.09,0,.18,0,.27-.02.34-.05.65-.18.92-.41.46-.38.7-.88.7-1.48,0-1.39,0-2.77,0-4.16,0-.28-.06-.54-.18-.79-.36-.71-.94-1.08-1.74-1.09-.69,0-1.38,0-2.06,0Z"/>
      <path class="d" d="m4.51,2.04c1.32,0,2.46,1.06,2.46,2.47,0,1.34-1.07,2.46-2.47,2.45-1.32,0-2.43-1.05-2.44-2.43-.02-1.41,1.13-2.48,2.46-2.48Zm-.01.52c-1.05,0-1.92.87-1.93,1.92,0,1.06.84,1.97,1.97,1.95,1.03-.01,1.91-.86,1.9-1.95,0-1-.81-1.92-1.95-1.92Z"/>
      <path class="d" d="m7.03,2.62c-.4,0-.72-.32-.72-.73,0-.39.33-.72.72-.72.4,0,.72.33.72.73,0,.39-.33.72-.72.72Zm-.2-.72c0,.11.09.2.21.2.11,0,.19-.08.19-.2,0-.12-.09-.21-.2-.2-.11,0-.2.09-.2.2Z"/>
    </g>
  </g>
</svg>