<?xml version="1.0" encoding="UTF-8"?>
<svg id="b" data-name="Шар 2" xmlns="http://www.w3.org/2000/svg" viewBox="0 0 426.28 331.8">
  <defs>
    <style>
      .d {
        fill: #fefdfd;
      }
    </style>
  </defs>
  <g id="c" data-name="Шар 1">
    <g>
      <path class="d" d="m99.35,177.42c4.48-4.32,7.35-9.56,10.19-14.8,2.84-5.24,5.52-10.58,8.56-15.7,5.77-9.74,14.17-16.27,25.04-19.46,3.13-.92,6.39-1.42,9.59-2.1,2.37-.5,4.73-1.05,7.12-1.45,3.74-.64,7.49-1.31,11.26-1.73,7.13-.79,14.26-1.93,21.46-1.37,2.57.2,5.17.76,7.63,1.55,2.52.8,4.02,2.68,4.04,5.52,0,.54.28,1.24.68,1.58,1.77,1.53,1.75,3.31,1.23,5.4-1.18,4.72-4.07,8.44-7.11,11.96-11.85,13.69-25.88,24.69-41.92,33.1-6.93,3.63-14.27,5.09-22.03,3.63-4.02-.75-7.98-1.8-11.99-2.61-5.66-1.14-11.15-3.22-17.05-2.98-1.81.08-3.63.03-5.45,0-.34,0-.67-.27-1.24-.53Z"/>
      <path class="d" d="m76.17,297.58c-.77.74-1.63,1.39-2.28,2.22-3.26,4.22-8.86,1.57-9.89-2.01-.1-.36-.27-.7-.49-1.25-2.87,2.06-5.92,3.27-9.44,3.05-3.81-.24-4.82-1.13-5.08-4.99-.1-1.45-.03-2.91-.04-4.36.06-.02.13-.02.17-.06.02-.02,0-.09.01-.13-.05.08-.1.15-.15.23-1.06.57-2.08,1.21-3.17,1.71-1.46.65-2.92,1.42-4.46,1.74-5.75,1.19-9.62-3.03-7.71-8.62.98-2.87,2.71-5.49,4.13-8.22.64-1.23,1.6-2.35,1.97-3.64.89-3.1,3.67-4.31,5.77-6.19.26-.24,1.32-.04,1.6.3.6.7,1.12,1.59,1.32,2.48.13.58-.35,1.31-.55,1.97-1.36,4.39-2.81,8.76-4.02,13.19-.26.95.19,2.19.62,3.17.1.22,1.49-.05,2.26-.23,3.82-.89,6.56-3.14,8.33-6.65.76-1.5,1.66-2.96,2.68-4.3.42-.55,1.33-.73,2.02-1.08.26.71.88,1.52.72,2.11-.91,3.16-2.05,6.25-3.02,9.4-.48,1.54-.7,3.15-1.16,4.69-.34,1.17.1,1.7,1.15,2.07,3.28,1.15,6.59-.57,7.45-3.93,1.59-6.2,4.34-11.84,8.42-16.75,1.39-1.67,3.2-3.23,5.14-4.14,1.32-.62,3.47-.52,4.79.15,2.29,1.16,4.28,2.97,6.3,4.63.4.33.66,1.32.46,1.77-.19.43-1.2.92-1.61.76-2.17-.84-3.64.35-4.9,1.69-4.99,5.3-9.01,11.28-12.1,17.87-.36.77-.42,1.69-.33,2.73,2.39-1.09,4.07-2.93,5.64-4.83,3.14-3.79,6.16-7.67,9.3-11.46.56-.67,1.42-1.21,2.24-1.51,1.67-.62,2.61.28,2.07,1.99-.32,1-.94,1.94-1.59,2.78-2.42,3.13-3.59,6.76-4.46,10.53-.14.59-.16,1.22-.16,1.83,0,1.44.71,1.96,2.09,1.46.22-.08.45-.15.63-.28,3.58-2.52,7.17-5.02,10.73-7.57,1.17-.84,1.59-1.87,1.08-3.4-.66-1.98-.4-4.06.81-5.75,2.23-3.12,4.58-6.16,7-9.14,2.98-3.67,8.9-1.86,11.35.32,1.6,1.42,1.3,2.53-.5,3.86-4.52,3.34-7.92,7.58-10,12.83,3.09-2.04,5.54-4.64,7.51-7.76.56-.89.67-2.68,2.52-1.96,1.49.58,2.33,2.66,1.75,4.3-.23.65-.69,1.22-.87,1.88-.23.87-.47,1.81-.36,2.68.3,2.28,1.21,2.76,3.33,1.84.98-.42,1.89-1.03,2.86-1.5,1.26-.61,1.56-1.55,1.67-2.94.55-6.77,2.12-13.31,5.16-19.44.74-1.49,4.07-1.3,5.64.26,3.5,3.49,3.8,4.86,1.9,9.38-1.3,3.12-2.69,6.2-3.97,9.33-.34.82-.44,1.73-.72,2.9,2.17-.58,2.8-2.1,3.55-3.56,2.14-4.16,4.35-8.29,6.48-12.46.88-1.72,2.27-2.21,4.03-1.88,1.61.31,1.94,1.64,2.03,2.97.17,2.52.19,5.06.36,7.58.04.6.3,1.5.71,1.68.43.18,1.2-.27,1.74-.59,2.73-1.6,4.37-3.9,4.49-7.17,0-.25.41-.55.7-.7,1.08-.57,2.19-1.09,3.29-1.63,1.2-.59,2.19-.29,3.13.61,1,.96.62,1.91.19,2.94-.96,2.33-2.16,4.61-2.72,7.03-.63,2.71-.71,5.55-.92,8.35-.12,1.65,1.24,2.21,2.48,2.58,1.7.51,4.18-.97,4.75-2.68,2.34-7.1,5.32-13.91,9.17-20.34,1.17-1.96,2.08-4.07,3.11-6.12,4.35,1.48,6.19,4.15,5.15,8.48-.84,3.48-2.3,6.81-3.51,10.2-.2.57-.63,1.08-.78,1.66-.1.39.1.87.16,1.3.48-.1,1.11-.05,1.41-.34,1.22-1.17,2.33-2.45,3.49-3.69,2.32-2.47,4.58-4.99,6.97-7.38,1.74-1.75,3.92-.97,5.9-.54,1.64.36,2.01,1.83,1.9,3.29-.16,2.12-.52,4.23-.74,6.35-.28,2.67-.62,5.33-.73,8.01-.07,1.75.76,2.35,2.44,2.19,2.96-.28,7.46-4.15,8.36-7.06,1.76-5.72,4.43-11,8.3-15.56,1.36-1.6,3.14-3.13,5.04-3.89,1.41-.56,3.55-.27,4.98.42,2.11,1.02,3.93,2.68,5.74,4.23.49.42.48,1.43.7,2.17-.67.19-1.44.7-1.99.52-2.02-.63-3.33.51-4.47,1.71-5.02,5.27-9.03,11.27-12.13,17.85-.38.81-.41,1.77-.61,2.67.25.15.51.3.76.45,1.74-1.76,3.61-3.41,5.2-5.3,2.62-3.12,5.03-6.42,7.59-9.58.86-1.06,1.85-2.1,2.98-2.85.65-.43,1.7-.25,2.57-.34.03.93.32,1.96.02,2.77-.42,1.12-1.23,2.12-1.97,3.11-2.22,2.99-3.09,6.5-3.82,10.04-.17.81.28,1.74.44,2.61.93-.19,2.01-.13,2.75-.6,2.98-1.9,6.13-3.66,8.7-6.04,2.43-2.26,4.2-5.22,6.25-7.88.28-.36.37-.91.71-1.16.29-.21.8-.09,1.22-.12.01.35.17.77.02,1.02-2.55,4.46-4.92,8.98-9.62,11.8-3.41,2.05-6.43,4.73-9.63,7.12-1.62,1.21-2.47,2.81-2.84,4.83-.68,3.78-1.57,7.51-2.36,11.27-1.26,6.04-5.17,9.53-10.9,11.21-1.24.36-2.54.63-3.83.66-2.95.08-3.85-.55-4.01-3.41-.1-1.84.11-3.9.87-5.55,2.33-5.04,5.19-9.85,9.14-13.78,3.21-3.19,4.11-7.25,5.27-11.28.05-.16.1-.31.16-.47l-.35.27c-.77.74-1.57,1.45-2.29,2.23-3.21,3.46-7.96,2.58-9.8-1.82-.12-.28-.24-.56-.23-.53-2.47.4-4.81,1.03-7.18,1.1-5.51.16-8.8-2.98-9.05-8.49-.1-2.06.2-4.14.26-6.21.03-1.07-.08-2.15-.13-3.22-.21-.05-.42-.1-.64-.15-1.66,1.77-3.38,3.49-4.96,5.34-1.95,2.28-3.72,4.7-5.66,6.98-1.94,2.28-3.14,4.92-3.82,7.78-.51,2.12-1.97,3.07-3.85,3.4-1.34.23-2.79.23-4.12-.02-2.98-.56-3.34-1.13-3.61-4.57-5.92,2.01-10.56,1.25-12.91-2.1-1.85-2.64-1.53-9.77.87-13-.84.37-1.33.53-1.77.79-2.87,1.66-6.26.56-6.79-2.67-.49-3.03-.11-6.21-.11-9.41-.55.99-1.25,2.02-1.73,3.15-2.69,6.28-5.31,12.59-8.01,18.87-.54,1.26-1.29,2.45-2,3.63-1.03,1.71-2.37,2.79-4.56,2.3-1.84-.41-2.89-1.51-3.29-3.94-.23-1.41-.23-2.86-.34-4.42-.64.2-1.15.35-1.64.53-3.54,1.27-6.96,1.26-10-1.24-.93-.76-1.61-.64-2.39.06-.23.2-.5.37-.73.57-2.6,2.26-5.36,2.41-8.27.61-.65-.4-1.32-.78-1.88-1.12-5.14,3.91-10.26,7.82-15.4,11.7-1.76,1.32-2.64,3.02-3.03,5.21-.77,4.31-1.53,8.65-2.8,12.82-1.52,4.97-5.23,7.98-10.21,9.35-1.32.36-2.69.68-4.05.73-2.82.1-3.57-.36-3.9-2.99-.22-1.75-.19-3.8.51-5.36,2.34-5.19,5.2-10.17,9.26-14.19,3.28-3.25,4.27-7.34,5.45-11.45.05-.16.1-.32.15-.49-.12.09-.24.18-.36.27Zm-3.78,14.47c-.74.31-.91.34-1.01.44-3.09,3.36-4.6,7.57-6.16,11.73-.48,1.28-.28,3.04,1.31,3.51,1.56.47,2.12-1.1,2.72-2.24.14-.27.31-.54.37-.84.53-2.54,1.01-5.09,1.56-7.63.33-1.55.74-3.07,1.21-4.96Zm145.02.27l-.65-.24c-3.32,3.57-5.07,8.01-6.54,12.58-.36,1.11.18,2.37,1.35,2.5.68.07,1.5-.91,2.22-1.47.22-.17.38-.5.45-.78.66-2.58,1.3-5.17,1.95-7.76.4-1.61.81-3.22,1.21-4.83Z"/>
      <path class="d" d="m218.27,0c1.31,4.5,2.27,9.04,3.98,13.27,1.63,4.03,4.05,7.75,6.14,11.59,2.79,5.11,5.92,10.06,8.28,15.35,1.59,3.56,2.31,7.56,3.04,11.43.69,3.66,1.24,7.42,1.25,11.13.02,6.07-.84,12.06-2.04,18.04-1.37,6.86-3.72,13.24-7.54,19.04-2.85,4.34-6.72,7.47-11.65,9.37-4.42,1.71-8.3.81-11.99-1.71-5.74-3.92-8.8-9.75-11.08-16.05-1.76-4.87-3.37-9.79-3.88-15.01-.52-5.3-1.52-10.57-1.76-15.88-.5-10.69,2.43-20.71,7-30.24,5.14-10.72,11.93-20.4,19.52-29.53.29-.35.61-.67.75-.82Z"/>
      <path class="d" d="m403.9,265.56c4.39,1.91,5.93,7.79,3.21,11.46-.99,1.33-1.8,2.87-2.32,4.43-.26.79.08,1.96.52,2.77,1.28,2.36,2.9,4.53,4.06,6.93.85,1.75,1.79,1.98,3.45,1.31,4.6-1.86,8.2-5.07,11.7-8.43.44-.42.81-.9,1.22-1.35.18.03.36.05.54.08-.06.88.14,1.89-.23,2.61-.83,1.62-1.65,3.42-2.98,4.56-2.85,2.43-5.96,4.55-9.07,6.66-1.25.85-2.17,1.7-1.93,3.31.61,4.18-1.29,7.44-3.92,10.37-1.71,1.91-3.61,3.66-5.43,5.48-.13-.24-.25-.47-.38-.71-.72-.12-1.44-.27-2.17-.36-1.21-.15-3.09.17-3.5-.46-1.04-1.62-2.37-3.33-1.37-5.7,1.32-3.14,3.39-5.66,5.72-8.01,3.84-3.85,3.91-4.1,1.63-8.9-1.95,1.92-3.86,3.99-5.97,5.84-2.16,1.89-4.6,3.41-7.63,3.42-4.89.02-8.19-2.94-8.82-7.8-.06-.45-.11-.89-.11-.86-4.31-.63-8.38-1.22-12.45-1.84-1.17-.18-1.79.21-1.72,1.45.07,1.31.1,2.62.2,3.92.5,6.6-1.39,12.78-3.48,18.9-.84,2.45-1.99,4.8-3.08,7.16-.82,1.78-2.88,3.15-4.6,2.52-1.34-.5-2.77-1.79-3.34-3.09-.8-1.84-1.2-4.03-1.14-6.05.1-3.74.39-7.52,1.1-11.19.94-4.88,2.34-9.67,3.58-14.62-2.12,0-4.11-.1-6.08.07-.5.04-1.14.86-1.35,1.46-1.29,3.61-3.05,6.86-6.1,9.33-2.17,1.76-4.68,2.46-7.22,1.73-2.85-.82-3.82-3.43-4.09-6.15-.29-2.93-.15-5.85,1.27-8.56.24-.45.32-.98.52-1.61-1.11.1-2.1.41-2.99.24-2.95-.57-4.35-2.26-4.38-5.34-.02-2.21.25-4.42.01-6.83-.48.87-1.04,1.71-1.44,2.63-3.01,6.89-5.97,13.81-9.01,20.69-.46,1.04-1.15,2.02-1.92,2.85-2.02,2.16-5.24,1.58-6.4-1.16-.38-.9-.57-1.92-.63-2.9-.52-9.25.64-18.23,4.52-26.75.25-.54.41-1.11.61-1.67-.14-.15-.28-.31-.42-.46-.74.6-1.46,1.22-2.21,1.81-.22.17-.47.32-.73.41-5.4,1.92-10.31,4.89-15.81,6.74-4.63,1.55-9.29,2.3-13.97,3.26-1.22.25-1.47.59-1.39,2.03,0,.09-.59.14-.69.33-.11.2.15.59.06.81-1.24,3.09-2.74,6.09-3.71,9.26-1.31,4.24-2.09,8.65-3.42,12.89-.34,1.08-1.76,2.11-2.92,2.59-1.97.82-4.11,1.25-6.21,1.71-2.25.49-3.76-1.16-3.08-3.39,2.56-8.37,4.8-16.86,7.89-25.03,2.41-6.35,5.93-12.28,8.9-18.43.47-.97.63-2.1.94-3.15-1.04.01-2.08.01-3.12.04-.23,0-.46.06-.68.11-3.47.74-4.49-.22-3.8-3.77.36-1.87.94-3.71,1.51-5.54.14-.45.57-1.03.98-1.14,1.9-.52,3.85-.89,5.93-.91-.74.41-1.48.83-2.22,1.24.04.16.08.31.12.47,2.24-.46,4.49-.9,6.73-1.38,3.87-.82,7.72-1.78,11.62-2.43,2.48-.41,5.05-.3,7.57-.55,1.43-.14,2.82-.68,4.24-.8,1.25-.1,2.63-.15,3.77.27,2.8,1.01,5.52,2.25,8.22,3.48,3.34,1.52,4.74,6.14,3.08,9.08-1.6,2.84-3.72,5.4-5.64,8.06-.34.46-.85.8-1.51,1.4.54.14.8.28,1.05.25,3.8-.36,5.67,2.22,7.32,4.96.9,1.49.48,3.08-.22,4.64-1.58,3.5-3.09,7.03-4.58,10.57-.31.74-.4,1.58-.67,2.68,2.18-.6,2.8-2.1,3.55-3.58,2.16-4.24,4.45-8.41,6.64-12.63.81-1.57,2.11-1.96,3.67-1.69,1.42.24,2.06,1.31,2.15,2.64.18,2.6.22,5.2.39,7.8.04.62.35,1.23.53,1.84.68-.21,1.38-.38,2.04-.64.48-.19.89-.54,1.36-.73,1.32-.54,1.93-1.27,1.27-2.8-.61-1.39-1.01-2.89-1.4-4.37-.64-2.43.55-4.71,3.27-6.45,2.74-1.75,3.77-1.59,6.26.12,4.59,3.16,6.16,7.58,6.06,12.93-.09,4.7-.56,4.17,4.16,4.18,3.18,0,3.03-.06,4.3-3.05,2.07-4.86,4.36-9.62,6.54-14.43.46-1.02,1.02-2.02,1.26-3.1,1.17-5.3,5.09-8.41,9.08-11.4,2.02-1.51,4.45-1.19,6.6-.11,2.16,1.08,2.98,2.98,3.2,5.45.49,5.46-2.35,9.56-5.19,13.67-.5.73-1.53,1.1-2.55,1.47,1.57-5.47,5.52-10.33,3.5-17.09-.67,1.07-1.2,1.67-1.47,2.36-3.2,8.48-6.38,16.97-9.5,25.48-.91,2.47-.77,2.64,1.75,3.24,2.01.48,4.03.98,6.08,1.28,2.32.34,2.95-.32,3.78-2.54.9-2.39,2.07-4.69,3.15-7.02.39-.83,1.17-1.62,1.21-2.46.15-3.37,2.99-3.5,5.13-4.31.57-.22,1.84.46,2.26,1.09.41.61.4,1.76.14,2.52-.85,2.45-2.19,4.76-2.79,7.25-.64,2.7-.78,5.55-.9,8.34-.08,1.75,2.17,2.98,4.06,2.51,3.78-.94,5.89-3.71,7.56-6.92.22-.42-.05-1.15-.21-1.7-.67-2.28-1.66-4.51-1.99-6.84-.26-1.82.04-3.82.51-5.63.86-3.3,2.51-6.24,4.96-8.63Zm-108.68,2.04c0-.09-.01-.19-.02-.28,3.28-1.28,6.67-2.35,9.81-3.91,2.07-1.03,3.87-2.67,5.63-4.22.91-.8,1.19-2.09.23-3.11-1.52-1.62-3.29-3.01-5.59-3.2-5.31-.44-10.33,1.26-15.39,2.44-1.04.24-2.12,1.32-2.73,2.29-2.33,3.7-4.52,7.49-6.65,11.31-.58,1.04-.94,2.29-1.09,3.48-.2,1.61.61,2.33,2.2,2.03,1.04-.19,2.07-.59,3.04-1.03,4.02-1.78,8.01-3.6,12.01-5.42.07-.03.09-.18.17-.39h-1.62Zm51.44,11.94c-.36-1.83-.58-3.83-1.18-5.71-.72-2.24-2.47-3.92-4.72-4.24-1.77-.25-2.97,1.49-3.63,3.07-.39.93-.54,2.14-.3,3.1.82,3.26,2.69,6.01,5.07,8.32,1.43,1.38,3.37.85,4.1-1.01.41-1.04.42-2.22.65-3.53Zm10.76,39.72c.35.02.7.05,1.05.07,3.28-7.55,3.64-15.64,4.16-23.7-.36.12-.51.29-.56.48-1.62,6.55-3.28,13.09-4.81,19.66-.25,1.09.09,2.32.15,3.49Zm46.92-16.85c-3.18,2.21-6.21,4.53-8.15,7.82-.4.67.27,2.37.94,3.18.96,1.16,1.71-.2,2.41-.76.59-.47,1.12-1.05,1.6-1.64,1.99-2.48,3.36-5.21,3.2-8.6Zm-60.08-12.71c-.12-.23-.25-.46-.37-.69-.77.05-1.62-.09-2.29.2-1.84.77-3.86,4.97-3.4,6.85.1.4.43,1.01.71,1.05.42.05,1.09-.2,1.3-.54,1.4-2.26,2.71-4.57,4.05-6.87Zm-46.45-22.29s-.09-.11-.13-.12c-.05,0-.1.06-.15.1.04.04.09.11.13.12.05,0,.1-.06.15-.1Z"/>
      <path class="d" d="m325.02,180.47c-4.92,1.18-9.79,2.25-14.61,3.53-3.87,1.03-7.64,2.47-11.53,3.45-3.01.76-6.12,1.15-9.19,1.62-1.65.25-3.32.32-4.98.44-.61.04-1.24.06-1.84-.02-6.98-.91-13.64-2.78-20.11-5.66-7.47-3.34-14.57-7.2-20.84-12.49-6.78-5.73-11.88-12.67-14.63-21.16-1.02-3.15-1.58-6.44-2.33-9.68-.29-1.26.4-2.14,1.44-2.57,1.53-.63,3.13-1.35,4.74-1.46,3.82-.26,7.68-.35,11.51-.21,8.88.32,17.76.9,26.64,1.2,6.18.21,12.09,1.62,17.99,3.27,10.12,2.84,17.64,9.1,23.34,17.67,3.66,5.5,6.96,11.24,10.5,16.82,1.18,1.86,2.62,3.55,3.89,5.24Z"/>
      <path class="d" d="m198.13,238.08c-1.12-3.34-2.19-6.91-3.53-10.39-1.73-4.52-3.88-8.88-5.46-13.44-1.03-2.98-1.75-6.18-1.96-9.32-.39-5.79-.29-11.59,1.38-17.27,1.18-4.02,2.01-8.13,3.14-12.16,2.46-8.78,6.87-16.16,15.2-20.65.88-.47,1.86-.94,2.46-1.68,1.48-1.81,2.59-1.19,4.16,0,3.87,2.92,7.6,6.06,9.13,10.73,1.49,4.52,2.31,9.27,3.21,13.96.52,2.69.74,5.45.88,8.18.48,9.08-2.01,17.46-6.56,25.2-1.94,3.29-4.24,6.42-6.71,9.35-4.99,5.92-10.2,11.65-15.35,17.5Z"/>
      <path class="d" d="m232.77,122.52c.25-5.95,1.94-11.46,6.61-15.51,3.53-3.06,7.29-5.95,11.31-8.32,2.42-1.43,5.48-1.95,8.32-2.46,6.96-1.27,13.56.93,20.23,2.39,2.73.6,5.49,1.06,8.18,1.57-3.67,4.97-7.34,10.16-11.24,15.15-2.89,3.7-6.87,6.07-11.22,7.73-4.78,1.82-9.53,3.8-14.65,4.43-4.39.53-8.67.2-12.55-2.32-1.47-.95-3.09-1.66-4.98-2.66Z"/>
      <path class="d" d="m0,300.88c.69-1.73,1.11-3.63,2.12-5.15,1.65-2.49,3.56-4.83,5.6-7.01.59-.63,2.01-.47,3.05-.67-.13.91.01,1.99-.43,2.69-1.41,2.2-3.06,4.21-3.05,7.06,0,1.5.55,2.2,1.98,2.13,1.14-.06,2.38-.05,3.4-.49,3.66-1.55,7.27-3.22,10.85-4.96,1.38-.67,1.79-1.97.93-3.29-1.07-1.65-2.06-3.52-3.56-4.68-3.03-2.34-6.51-4.11-9.57-6.42-2.77-2.09-5.47-4.38-7.79-6.95-2.8-3.1-2.58-6.73-.66-10.31,2.84-5.27,7.44-8.56,12.71-10.93,7.82-3.51,15.99-3.42,24.21-1.82,3.13.61,3.75,1.7,2.7,4.72-.98,2.8-1.92,5.67-3.34,8.25-1.5,2.72-4.33,3.47-7.35,2.64-1.11-.3-2.24-.59-3.38-.67-4.48-.31-8.99-1.25-13.44.26-.72.25-1.5.35-2.2.66-2.22.97-2.86,2.67-1.43,4.63,1.12,1.52,2.57,2.85,4.07,4.01,2.92,2.25,6.03,4.25,8.95,6.49,1.2.92,2.28,2.09,3.17,3.32,4.55,6.3,3.73,12.41-2.1,17.89-2.31,2.17-5.09,3.56-8.47,3.73-1.86.09-3.7.9-5.54,1.43-3.38.98-6.32-.22-9.17-1.8-1.82-1.01-2.06-2.73-1.75-4.63-.18-.06-.36-.11-.54-.17Z"/>
      <path class="d" d="m193.09,113.33c-6.99,0-13.74.02-20.49-.03-.81,0-1.7-.24-2.4-.64-3.99-2.29-8.28-3.74-12.71-4.89-8.83-2.28-16.06-6.99-21.46-14.41-.26-.36-.45-.78-.83-1.47,4.25-1.95,8.39-3.98,12.9-4.69,4.05-.64,8.25-1.1,12.31-.78,10.92.86,20.54,4.64,27.16,14.01.49.69,1.03,1.37,1.34,2.14,1.4,3.47,2.72,6.97,4.17,10.75Z"/>
      <path class="d" d="m388.07,268.54c.84-1.63,1.47-3.11,2.35-4.44.34-.52,1.22-.96,1.85-.96,2.35,0,3.06,1.4,1.83,3.41-1.34,2.2-2.97,2.81-6.03,2Z"/>
      <path class="d" d="m159.98,268.52c.76-1.53,1.38-3.1,2.29-4.47.36-.54,1.41-.94,2.09-.88,2.23.21,2.69,1.28,1.59,3.21-1.35,2.39-2.93,3-5.98,2.13Z"/>
    </g>
  </g>
</svg>