<?xml version="1.0" encoding="UTF-8"?>
<svg id="b" data-name="Шар 2" xmlns="http://www.w3.org/2000/svg" viewBox="0 0 99.75 20.17">
  <defs>
    <style>
      .d {
        fill: #fff;
      }
    </style>
  </defs>
  <g id="c" data-name="Шар 2">
    <g>
      <g>
        <path class="d" d="m34.42,19.22c-.48.63-1.15.95-2.02.95-.63,0-1.25-.19-1.84-.56-.59-.37-1.08-.89-1.45-1.55-.3-.49-.51-1.11-.65-1.85-.14-.74-.2-1.62-.2-2.63,0-.31.01-.78.04-1.41.03-.63.06-1.28.12-1.95.03-.36.05-.69.07-.98.02-.29.03-.56.04-.81,0-.25.01-.5.02-.74s0-.49,0-.75v-.64c0-.18,0-.34-.02-.48-.01-.14-.03-.28-.05-.41-.02-.13-.05-.26-.09-.41-.27.34-.48.63-.63.89-.15.26-.3.55-.46.87-.22.54-.45,1.2-.69,1.97-.24.77-.47,1.64-.71,2.61-.14.57-.26,1.03-.34,1.38s-.15.63-.21.85c-.06.22-.11.4-.17.54-.05.14-.11.29-.17.45-.62,1.41-1.48,2.48-2.59,3.23-1.1.74-2.45,1.11-4.04,1.11-1.14,0-2.19-.21-3.16-.63-.97-.42-1.81-1-2.53-1.74-.72-.74-1.28-1.62-1.69-2.63-.41-1.01-.61-2.1-.61-3.27,0-1.51.34-2.86,1.02-4.06.68-1.19,1.66-2.16,2.96-2.9.63-.37,1.29-.66,1.98-.84.68-.19,1.36-.28,2.02-.28h.46c.56-.59,1.21-1.05,1.97-1.38.76-.32,1.58-.48,2.47-.48,1.18,0,2.24.28,3.2.83.96.56,1.78,1.38,2.48,2.48.4-.32.81-.58,1.24-.77.43-.19.98-.36,1.65-.51l.06.31c-.37.09-.69.18-.94.26-.25.08-.48.17-.68.27-.2.1-.39.21-.57.34-.18.13-.38.28-.6.45.3.49.51,1.08.63,1.77.12.69.2,1.61.24,2.76l.02,1.96.04,1.59s.02.12.02.29v.25c0,.06,0,.17-.02.33.12-.28.21-.53.29-.73s.15-.4.21-.6c.06-.2.14-.42.21-.67.08-.25.17-.56.29-.93.25-.83.48-1.56.71-2.2.23-.64.45-1.22.67-1.73.22-.52.45-.98.69-1.4.24-.41.5-.81.78-1.18.43-.54.86-.97,1.31-1.27.45-.3.86-.46,1.23-.46.27,0,.5.08.7.23.19.16.29.34.29.54,0,.22-.06.4-.19.55-.13.15-.3.22-.52.22-.28,0-.54-.11-.76-.33l-.17-.16c-.06-.08-.16-.12-.27-.12-.48,0-1.01.47-1.61,1.4-.26.37-.49.75-.71,1.11-.21.37-.41.77-.59,1.21-.18.44-.36.92-.53,1.45-.17.53-.36,1.14-.55,1.82-.19.65-.35,1.16-.47,1.54-.12.38-.22.7-.31.97-.09.27-.19.51-.29.73-.1.22-.24.5-.41.83v.48c0,1.64.23,2.9.7,3.78.47.88,1.14,1.32,2.03,1.32.26,0,.48-.05.68-.15s.43-.29.72-.57l.25.19Zm-6.14-14.79c-.21-.56-.43-1.01-.66-1.37-.23-.36-.56-.68-.99-.98-.49-.34-1.01-.6-1.56-.78-.55-.19-1.13-.28-1.75-.28-.83,0-1.55.13-2.18.39-.63.26-1.25.66-1.87,1.2,1.23.19,2.27.64,3.12,1.34.3.25.57.54.82.89.25.35.47.73.65,1.13.18.41.32.83.42,1.26s.15.86.15,1.27v.58c.34-.36.6-.73.8-1.11.2-.38.39-.88.57-1.5l.31.12c-.12.36-.23.68-.34.97-.11.28-.23.55-.36.78-.13.24-.28.47-.46.69-.17.22-.38.45-.61.68-.15.8-.39,1.51-.71,2.14-.32.63-.71,1.16-1.17,1.59-.47.43-1,.77-1.59,1-.59.23-1.24.35-1.94.35-.65,0-1.24-.11-1.78-.32-.54-.21-1.01-.51-1.4-.88s-.7-.83-.92-1.36c-.22-.53-.33-1.11-.33-1.74,0-.26.02-.49.05-.69.03-.2.1-.44.2-.73l.31.08c-.15.43-.23.87-.23,1.32,0,.57.1,1.09.29,1.57.19.48.46.89.8,1.24.34.35.75.62,1.21.82.46.2.97.3,1.51.3s1.12-.11,1.65-.32c.53-.21,1.02-.51,1.47-.88.45-.37.85-.82,1.2-1.35.35-.52.63-1.09.85-1.71-.26.13-.48.24-.67.32-.19.08-.37.15-.53.19-.17.05-.33.08-.49.1-.16.02-.35.03-.55.03-.59,0-1.15-.12-1.66-.35-.51-.23-.96-.55-1.34-.95-.38-.4-.68-.87-.89-1.42-.21-.55-.32-1.14-.32-1.77,0-.28.02-.55.05-.78.03-.24.09-.48.17-.72s.19-.49.33-.76.31-.57.51-.9l.14-.21c-1.05,0-2.03.22-2.96.65-.93.43-1.74,1.02-2.44,1.75-.7.74-1.25,1.6-1.66,2.6-.41.99-.61,2.05-.61,3.18,0,1.05.19,2.03.57,2.95.38.92.9,1.71,1.57,2.39.67.68,1.45,1.21,2.36,1.6.91.39,1.89.58,2.94.58,2.14,0,3.79-.79,4.94-2.36.22-.28.44-.65.66-1.09s.44-.98.66-1.62c.05-.1.09-.2.13-.29.03-.09.06-.19.1-.3.03-.11.07-.24.12-.39.05-.15.11-.33.18-.55.1-.26.19-.52.25-.78.06-.26.15-.52.25-.78.28-.89.53-1.64.75-2.25.21-.61.42-1.13.62-1.56.2-.43.41-.8.62-1.11s.46-.61.73-.91l-.06-.17Zm-4.36,5.15c.06-.23.11-.42.13-.57.02-.15.03-.31.03-.47,0-.7-.12-1.38-.37-2.05-.25-.67-.57-1.25-.97-1.74-.44-.5-.96-.9-1.56-1.2-.6-.3-1.33-.52-2.18-.68-.45.58-.78,1.14-.99,1.68-.21.54-.31,1.11-.31,1.73,0,.58.1,1.12.3,1.63.2.5.47.94.82,1.32.35.37.76.67,1.22.89.47.22.96.33,1.49.33.45,0,.84-.06,1.16-.19.32-.13.73-.35,1.22-.66Z"/>
        <path class="d" d="m35.76,14.22c-.22.57-.43,1.05-.62,1.43-.19.39-.38.7-.55.94-.17.24-.35.41-.53.51-.18.1-.37.15-.58.15-.37,0-.68-.15-.92-.44-.24-.29-.36-.66-.36-1.09,0-.08,0-.16,0-.23,0-.08.02-.17.05-.27.03-.1.06-.24.1-.4.04-.16.09-.37.16-.63l1.07-3.93c.14.04.26.06.36.06h.63c.09,0,.21-.02.37-.06l-1.36,4.96-.16.58c-.04.16-.06.29-.08.41-.01.12-.02.21-.02.27,0,.1.03.19.09.27.06.08.14.12.24.12.32,0,.71-.44,1.16-1.32.15-.26.29-.54.42-.83.12-.3.29-.73.51-1.3l.31.1-.29.7Zm.06-6.22c0,.27-.09.5-.27.68-.18.18-.41.27-.7.27-.53,0-.79-.24-.79-.72,0-.27.1-.51.29-.71.19-.2.43-.3.7-.3.22,0,.4.07.55.22.15.15.22.33.22.55Z"/>
        <path class="d" d="m41.59,13.89c-.25.65-.47,1.19-.68,1.63-.21.44-.41.79-.61,1.06-.2.27-.41.45-.62.56-.21.11-.45.16-.71.16-.35,0-.64-.12-.87-.35-.23-.23-.35-.52-.35-.85,0-.12,0-.24.03-.38.02-.14.06-.31.12-.53.06-.22.14-.49.24-.81.1-.32.24-.72.41-1.2.06-.19.1-.34.1-.43,0-.37-.27-.56-.81-.56-.06,0-.12,0-.16.02-.05.01-.12.03-.22.04l-1.38,4.94c-.16-.04-.27-.06-.36-.06h-.58c-.1,0-.23.02-.4.06l3.51-12.79c.13.03.23.04.29.05.06,0,.15,0,.25,0s.21,0,.33,0c.12,0,.28-.03.5-.07l-2.09,7.5h.25c.26,0,.46-.03.59-.09.14-.06.28-.2.44-.42l.6-.72c.32-.41.72-.62,1.18-.62.25,0,.45.07.61.21.16.14.24.32.24.54s-.08.41-.23.56c-.15.16-.34.23-.56.23-.21,0-.41-.1-.6-.29l-.15-.16s-.07-.05-.09-.07c-.02-.02-.06-.03-.11-.03-.09,0-.24.1-.45.31-.13.18-.23.3-.29.36-.06.06-.17.16-.31.32.77.26,1.16.67,1.16,1.24,0,.18-.03.38-.08.6s-.15.52-.31.89c-.12.28-.21.51-.27.69-.06.17-.11.32-.15.43-.03.11-.05.2-.06.28,0,.08,0,.16,0,.25,0,.16.03.28.1.37.06.09.15.14.25.14.14,0,.28-.05.43-.16.14-.11.29-.29.45-.53.15-.25.32-.57.5-.97s.38-.89.6-1.47l.14-.35.31.1-.12.37Z"/>
        <path class="d" d="m47.7,13.89c-.27.67-.52,1.22-.74,1.66-.22.43-.42.78-.6,1.03-.18.25-.36.43-.54.53-.18.1-.37.15-.56.15-.7,0-1.11-.48-1.24-1.45-.14.27-.27.5-.39.68-.12.18-.23.33-.35.44-.12.11-.23.18-.35.22-.12.04-.25.06-.39.06-.44,0-.78-.2-1.02-.59-.24-.39-.36-.92-.36-1.58,0-.58.09-1.17.27-1.75.18-.59.41-1.11.7-1.58.28-.47.61-.84.97-1.13.36-.29.72-.44,1.08-.44.22,0,.4.07.54.22.14.15.26.41.37.78l.25-.87c.18.04.31.06.4.06h.67c.08,0,.18-.02.31-.06l-.14.52c-.03.09-.05.17-.07.25-.02.08-.04.17-.07.28-.03.11-.06.24-.1.4s-.09.35-.15.58c-.06.17-.12.34-.17.51s-.09.34-.13.49c-.1.35-.2.67-.28.97-.08.3-.16.57-.22.83-.04.18-.08.35-.12.49-.04.15-.08.27-.14.38-.03.1-.05.19-.06.27-.01.08-.02.15-.02.21,0,.23.13.35.39.35.14,0,.28-.06.43-.17.14-.12.29-.31.46-.57.16-.26.34-.61.53-1.05.19-.43.41-.97.66-1.6l.31.1-.16.37Zm-2.87-2.31c0-.3-.06-.56-.17-.78-.12-.22-.25-.33-.41-.33-.13,0-.25.08-.36.25-.11.17-.24.47-.4.89-.15.4-.31.82-.46,1.27-.15.45-.27.86-.38,1.25-.16.47-.26.85-.3,1.14-.05.3-.07.58-.07.83,0,.22.04.39.13.51.08.12.19.18.32.16.47,0,.92-.68,1.38-2.03.22-.61.39-1.2.52-1.78.13-.58.19-1.05.19-1.4Z"/>
        <path class="d" d="m64.73,9.19c0,.16,0,.3,0,.43,0,.13,0,.22,0,.27,0,1.43-.13,2.67-.4,3.7-.27,1.03-.69,1.96-1.29,2.79-1.43,1.95-3.48,2.93-6.12,2.93-2.31,0-4.21-.73-5.7-2.19-.83-.81-1.47-1.78-1.93-2.89-.46-1.11-.69-2.25-.69-3.43,0-1.06.18-2.05.55-2.98.37-.93.88-1.76,1.52-2.48.65-.72,1.41-1.32,2.31-1.78.89-.47,1.86-.76,2.91-.89.66-.93,1.35-1.61,2.07-2.02.72-.42,1.55-.63,2.48-.63.41,0,.8.04,1.15.12.36.08.7.2,1.05.38.34.17.68.4,1.02.67.34.27.68.6,1.05.99l-.23.25c-.67-.76-1.32-1.3-1.94-1.62-.62-.32-1.31-.47-2.07-.47-.85,0-1.64.21-2.36.62-.72.41-1.31.99-1.76,1.72h.43c.62,0,1.24.11,1.85.32.61.21,1.19.51,1.73.9.35.26.67.57.95.92.28.36.53.74.73,1.15.2.41.36.85.47,1.31.12.46.17.92.17,1.39,0,.31-.04.68-.12,1.1.01,0,.03,0,.05-.02.02-.01.04-.02.07-.02h.02l.19-.08.19-.04s.05-.02.06-.02.05-.01.1-.04l.1-.79c.09-.63.19-1.19.29-1.69.1-.49.22-.93.35-1.32.13-.39.27-.74.43-1.07.15-.32.33-.63.52-.93.75-1.14,1.49-1.71,2.21-1.71.41,0,.74.16.98.47.24.31.36.71.36,1.2,0,.56-.13,1.13-.38,1.73-.25.6-.6,1.16-1.04,1.68-.15.19-.31.37-.47.53-.16.16-.33.32-.51.48-.18.16-.38.33-.6.49-.22.17-.47.36-.76.56Zm-1.53.72c-.15.06-.27.11-.34.13-.07.02-.18.06-.34.11-.16.54-.3.99-.44,1.33-.14.34-.31.69-.53,1.04-.49.74-1.12,1.31-1.88,1.71-.76.41-1.61.61-2.54.61-.62,0-1.2-.11-1.73-.32s-1-.51-1.4-.89c-.39-.38-.7-.83-.92-1.34s-.33-1.07-.33-1.68c0-.28.02-.53.06-.75.04-.21.12-.47.23-.77l.27.1c-.1.32-.17.58-.2.78-.03.19-.05.41-.05.64,0,.53.1,1.03.31,1.49.21.47.48.87.83,1.22.35.35.75.63,1.21.83.46.21.94.31,1.44.31,1.18,0,2.22-.37,3.13-1.11.91-.74,1.6-1.79,2.06-3.15-.28.04-.51.06-.67.07-.16,0-.35,0-.57,0-.77,0-1.5-.13-2.18-.39-.68-.26-1.27-.62-1.77-1.08-.5-.46-.9-.99-1.19-1.61-.29-.61-.44-1.28-.44-2.01,0-.37.03-.72.1-1.04.06-.32.18-.67.35-1.06-.94.14-1.82.46-2.62.94-.8.48-1.49,1.09-2.07,1.8-.58.72-1.04,1.52-1.37,2.42-.33.9-.49,1.84-.49,2.82,0,1.07.19,2.08.57,3.02.38.94.89,1.77,1.54,2.48.65.71,1.4,1.27,2.28,1.69.87.41,1.79.62,2.76.62,1.18,0,2.23-.3,3.16-.91.93-.61,1.67-1.48,2.23-2.62.32-.66.59-1.39.81-2.18.22-.79.44-1.76.66-2.9l.06-.39Zm-1.07-.06c.06-.32.11-.57.14-.76.03-.18.04-.38.04-.6,0-.75-.15-1.46-.45-2.13-.3-.67-.7-1.26-1.2-1.75-.5-.5-1.09-.89-1.77-1.18-.68-.29-1.4-.44-2.16-.44h-.23c-.09,0-.19,0-.31.02-.21.44-.35.82-.44,1.14-.08.32-.13.68-.13,1.07,0,.68.14,1.31.41,1.89.27.58.65,1.08,1.12,1.5.48.43,1.04.76,1.69,1,.65.24,1.34.36,2.09.36.22,0,.41,0,.57-.02.16-.01.37-.04.63-.1Zm2.6-1.05c.3-.25.56-.47.77-.66s.41-.37.57-.53c.16-.16.31-.33.45-.49.14-.17.27-.36.42-.56.34-.54.59-1.09.77-1.63.17-.54.26-1.04.26-1.49,0-.72-.27-1.09-.81-1.09-.37,0-.74.21-1.09.63-.36.42-.62.98-.8,1.68-.1.35-.19.75-.25,1.21-.06.46-.13.98-.19,1.56-.01.17-.03.33-.04.47-.01.15-.02.31-.02.47,0,.16,0,.25-.02.27v.16Z"/>
        <path class="d" d="m69.34,13.82c-.28.7-.53,1.27-.74,1.72-.21.45-.4.8-.59,1.06-.19.25-.37.43-.54.52s-.37.15-.59.15c-.37,0-.68-.15-.92-.44-.24-.29-.36-.66-.36-1.11,0-.28.08-.72.25-1.3l1.01-3.58h-.68l.06-.29h.7l.78-2.85h.19c.12.03.21.04.27.04h.16c.06,0,.13,0,.2-.02.07-.01.16-.02.28-.02l.27-.02-.83,2.87h.72l-.06.29h-.72l-1.34,4.79c-.12.43-.17.68-.17.76,0,.3.12.45.37.45.14,0,.28-.06.43-.17.14-.12.29-.31.46-.57.16-.26.34-.61.53-1.05.19-.43.42-.97.68-1.6l.31.1-.12.29Z"/>
        <path class="d" d="m75.33,13.53c-.22.58-.41,1.06-.57,1.44-.16.38-.32.7-.48.96-.46.93-1.02,1.4-1.67,1.4-.35,0-.62-.14-.82-.43-.2-.28-.3-.68-.3-1.18v-.25c-.12.19-.21.35-.29.47-.08.12-.14.23-.19.31-.05.08-.1.16-.15.22-.05.06-.09.14-.15.21-.3.41-.7.62-1.2.62-.3,0-.54-.1-.73-.31-.19-.21-.28-.48-.28-.81,0-.16.02-.33.07-.51.05-.19.1-.42.17-.69l1.26-4.65c.14.01.26.02.36.02h.3c.13,0,.25,0,.35,0,.1,0,.23-.02.39-.07l-1.43,5.25-.17.64c-.03.06-.05.13-.06.18-.01.06-.02.11-.02.15,0,.1.03.18.08.23.05.05.11.08.17.08.13,0,.29-.12.48-.35.19-.23.4-.54.61-.93.21-.39.42-.84.63-1.35.21-.51.39-1.05.54-1.62l.45-1.59c.01-.06.04-.15.08-.25.04-.1.08-.23.12-.39h.19l.64.04h.06c.08,0,.14-.01.17-.04.04,0,.08,0,.12,0,.04,0,.09,0,.16,0l-1.51,5.52c-.04.17-.07.31-.1.42s-.04.18-.04.22c0,.28.12.43.37.43.26,0,.53-.23.81-.69.28-.46.65-1.24,1.09-2.35l.19-.45.31.1Z"/>
        <path class="d" d="m81.2,14.07c-.28.66-.53,1.2-.73,1.61-.2.41-.38.74-.55.97-.17.23-.34.39-.5.48-.17.09-.36.14-.56.14-.74,0-1.14-.49-1.22-1.47-.28.57-.53.95-.75,1.15-.21.2-.46.3-.75.3-.43,0-.77-.2-1.02-.59-.25-.39-.38-.92-.38-1.58,0-.58.09-1.17.28-1.76.19-.59.43-1.13.72-1.61.29-.48.62-.87.99-1.16.37-.3.73-.45,1.09-.45.45,0,.76.35.91,1.05l1.88-6.82c.1.04.19.06.27.07.08,0,.19,0,.33,0,.15,0,.28,0,.38,0,.1,0,.22-.03.38-.07l-2.93,10.72-.19.74c-.04.14-.07.27-.1.37-.03.1-.04.2-.04.29,0,.26.12.39.37.39.12,0,.23-.04.35-.14.12-.09.24-.25.38-.48.14-.23.3-.55.48-.94.19-.39.41-.89.67-1.5l.16-.33.31.1-.23.54Zm-2.79-2.52c0-.32-.05-.58-.16-.78-.1-.19-.23-.28-.37-.25-.09,0-.17.03-.24.08-.07.05-.15.14-.22.27-.08.13-.16.31-.24.54-.08.23-.18.53-.3.89-.1.28-.2.58-.28.88-.08.3-.18.64-.28,1.02-.13.49-.22.88-.28,1.16-.06.28-.09.57-.11.85,0,.14.04.27.13.38.08.11.18.16.28.16.41,0,.85-.63,1.32-1.9.25-.59.43-1.18.56-1.77.13-.59.19-1.1.19-1.54Z"/>
        <path class="d" d="m84.15,14.22c-.22.57-.43,1.05-.62,1.43-.19.39-.38.7-.55.94-.17.24-.35.41-.53.51-.18.1-.37.15-.58.15-.37,0-.68-.15-.92-.44-.24-.29-.36-.66-.36-1.09,0-.08,0-.16,0-.23,0-.08.02-.17.05-.27.03-.1.06-.24.1-.4.04-.16.09-.37.16-.63l1.07-3.93c.14.04.26.06.36.06h.63c.09,0,.21-.02.37-.06l-1.36,4.96-.16.58c-.04.16-.06.29-.08.41-.01.12-.02.21-.02.27,0,.1.03.19.09.27.06.08.14.12.24.12.32,0,.71-.44,1.16-1.32.15-.26.29-.54.42-.83.12-.3.29-.73.51-1.3l.31.1-.29.7Zm.06-6.22c0,.27-.09.5-.27.68-.18.18-.41.27-.7.27-.53,0-.79-.24-.79-.72,0-.27.1-.51.29-.71.19-.2.43-.3.7-.3.22,0,.4.07.55.22.15.15.22.33.22.55Z"/>
        <path class="d" d="m89.13,13.53c-.14.34-.26.61-.37.81-.1.21-.21.37-.31.5-.1.13-.22.22-.35.26-.13.05-.29.07-.48.07-.3.74-.6,1.27-.92,1.6-.32.33-.67.49-1.06.49-.26,0-.49-.06-.71-.16s-.4-.26-.57-.47c-.17-.2-.3-.43-.39-.7-.09-.26-.14-.55-.14-.86,0-.58.1-1.16.29-1.74.19-.58.45-1.1.76-1.57.31-.46.66-.84,1.05-1.13s.77-.44,1.16-.44.7.15.93.44.35.71.35,1.25c0,.17,0,.33-.02.49-.01.16-.04.34-.08.53s-.09.41-.16.66-.14.52-.23.83l-.1.43c.1,0,.19-.02.27-.06s.15-.11.23-.22c.08-.11.16-.26.24-.44.08-.18.18-.41.28-.68l.31.1Zm-1.82,1.59c-.37-.14-.56-.44-.56-.89,0-.39.09-.72.28-.99s.41-.41.67-.41c.12,0,.19.01.23.04.04-.18.06-.34.08-.47.01-.14.02-.26.02-.36,0-.45-.07-.81-.2-1.09s-.33-.41-.57-.41c-.22,0-.41.12-.56.35-.16.23-.37.68-.64,1.34-.16.34-.29.69-.4,1.07-.11.37-.23.81-.36,1.3-.1.45-.17.78-.21.99s-.06.4-.06.58c0,.52.21.78.64.78.63,0,1.18-.61,1.65-1.82Z"/>
      </g>
      <g>
        <path class="d" d="m3.35,12.69c-.26-.19-.54-.35-.83-.5-.29-.14-.6-.26-.92-.32-.16-.03-.33-.05-.5-.04-.17.01-.35.05-.52.14-.08.04-.16.11-.22.18-.06.07-.11.14-.16.21-.1.15-.17.33-.19.54-.01.21.07.42.2.57.13.15.3.24.47.3.17.05.35.07.53.05.18-.02.34-.08.49-.13.31-.12.59-.28.87-.44.27-.17.54-.35.79-.56Zm0,0c-.57.28-1.15.56-1.74.75-.15.04-.3.08-.43.09-.14,0-.28-.01-.41-.06-.13-.05-.25-.11-.33-.21-.08-.1-.12-.21-.12-.33,0-.12.05-.25.13-.37.04-.06.08-.12.13-.17.04-.05.09-.09.15-.12.22-.14.53-.15.83-.12.3.04.61.12.9.22.3.1.6.22.89.34Z"/>
        <path class="d" d="m5.05,12.22c-.5,0-.5.78,0,.78s.5-.78,0-.78Z"/>
        <path class="d" d="m6.85,12.22c-.4,0-.4.62,0,.62s.4-.62,0-.62Z"/>
      </g>
      <g>
        <path class="d" d="m96.26,13.09c.24-.23.51-.42.79-.6.28-.18.58-.33.91-.44.16-.05.33-.09.51-.11.18-.01.37,0,.55.08.09.03.18.09.25.15.07.06.13.12.2.19.12.14.22.31.26.51.04.2-.02.43-.14.59-.12.17-.28.28-.45.36-.17.07-.35.11-.54.12-.19,0-.35-.03-.52-.07-.33-.08-.64-.2-.95-.33-.3-.13-.6-.28-.88-.45Zm0,0c.63.2,1.25.41,1.88.52.16.02.31.04.46.03.15-.01.29-.05.41-.11.13-.06.24-.15.31-.25.07-.11.1-.23.07-.35-.02-.12-.09-.24-.18-.35-.05-.05-.1-.11-.15-.15-.05-.04-.11-.08-.17-.1-.25-.11-.57-.08-.87-.01-.3.08-.61.19-.9.33-.3.14-.58.29-.87.46Z"/>
        <path class="d" d="m94.63,12.62c-.5,0-.5.78,0,.78s.5-.78,0-.78Z"/>
        <path class="d" d="m92.99,12.7c-.4,0-.4.62,0,.62s.4-.62,0-.62Z"/>
      </g>
    </g>
  </g>
</svg>