<?xml version="1.0" encoding="UTF-8"?>
<svg id="b" data-name="Шар 2" xmlns="http://www.w3.org/2000/svg" viewBox="0 0 283.51 251.65">
  <defs>
    <style>
      .d {
        fill: #fefdfd;
      }
    </style>
  </defs>
  <g id="c" data-name="Шар 1">
    <g>
      <path class="d" d="m85.19,96.03c2.19.97,4.55.84,6.82.86,10.12.1,20.24.07,30.35.01,1.49,0,2.97-.4,4.28-.59,1.1-1.13,1.35-2.34,1.36-3.57.04-7.86.07-15.72.01-23.58,0-.94-.42-1.98-.94-2.78-1.67-2.55-3.86-4.42-7.04-4.91-1.41-.22-2.79-.69-4.17-1.08-1.46-.41-1.52-.52-1.63-2.53.5-.18,1.07-.53,1.65-.55,1.08-.05,2.18-.02,3.24.17,7.9,1.41,15.79,1.34,23.69.04,2.6-.43,7.6-.45,9.93.02.18.52.39,1.15.69,2-1,.35-1.77.71-2.58.9-5.03,1.16-7.53,4.84-7.55,9.92-.02,5.99,0,11.97,0,17.96,0,13.42.03,26.84-.04,40.25-.02,3.29.51,6.45,1.49,9.55,1.39,4.39,4.85,7,9.63,7.39,1.27.11,2.54.27,3.96.43v2.71c-1.38.13-2.53.38-3.66.32-5.04-.29-10.08-.83-15.13-.96-4.1-.11-8.22.22-12.33.38-2.16.08-4.32.28-6.49.32-.81.01-1.63-.28-2.5-.45-.04-.81-.06-1.36-.09-1.9.27-.15.45-.28.64-.34,1.16-.37,2.39-.58,3.46-1.12,3.95-1.99,5.71-5.43,5.76-9.69.1-9.45.05-18.89.02-28.34,0-.83-.34-1.66-.55-2.62-.82-.25-1.54-.62-2.29-.68-1.94-.16-3.89-.25-5.84-.26-9.03-.03-18.07-.03-27.1,0-1.59,0-3.17.13-4.75.27-.7.06-1.38.32-1.99.47-1.24,1.73-1.4,3.62-1.42,5.48-.05,6.85-.08,13.71.03,20.56.04,2.72.32,5.46,1.37,8.04,1.81,4.46,4.85,7.22,9.88,7.41,1.21.05,2.41.26,3.53.39.65.96.89,1.72-.3,2.73-.99.09-2.35.37-3.68.3-4.61-.26-9.21-.84-13.82-.93-4.54-.09-9.09.22-13.63.41-2.66.11-5.31.57-8.23.14-.15-.78-.3-1.55-.46-2.38.79-.25,1.32-.52,1.87-.57,4.49-.43,7.7-5.02,8.04-9.19.24-2.94.35-5.9.36-8.86.03-18.11,0-36.21,0-54.32,0-1.15-.19-2.3-.16-3.45.07-3.48-2.14-5.45-4.85-6.8-2.23-1.12-4.7-1.75-7.09-2.53-1.46-.48-1.52-.46-2.02-2.14.32-.86.99-1.17,1.87-1.11.94.06,1.89.03,2.81.21,4.48.91,9.03,1.14,13.57,1.02,3.3-.08,6.59-.72,9.89-.93,3.16-.2,6.34-.2,9.51-.24.4,0,.8.26,1.26.42.03.61.05,1.17.09,1.85-.55.24-1.05.49-1.57.69-1.27.49-2.59.86-3.8,1.46-2.36,1.17-3.68,3.2-4.18,5.73-.24,1.19-.31,2.43-.31,3.65-.02,6.2-.05,12.41.05,18.61.03,2.13-.1,4.35,1.12,6.32Z"/>
      <path class="d" d="m117.92,206.14v-5.98h108.2c.38-.62.74-1.15,1.04-1.71,5.49-10.28,10.98-20.55,16.44-30.84,5.56-10.48,11.08-20.98,16.6-31.48,5.32-10.12,10.58-20.27,15.96-30.35,1.02-1.91,1.06-3.52.04-5.43-7.25-13.65-14.41-27.35-21.63-41.01-3.13-5.91-6.36-11.77-9.49-17.68-4.75-8.95-9.46-17.93-14.2-26.89-1.31-2.48-2.64-4.95-3.99-7.41-.2-.37-.54-.66-.93-1.13h-15.07c-.1-2.04-.19-3.92-.29-5.96.76-.09,1.38-.24,2.01-.24,4.05,0,8.09.03,12.14.02,3.79-.01,6.44,1.84,8.18,5.05,2.4,4.42,4.69,8.9,7.04,13.35,4.34,8.2,8.71,16.37,13.03,24.58,4.12,7.83,8.15,15.7,12.26,23.53,5.68,10.82,11.39,21.62,17.09,32.43,1.44,2.73,1.6,5.48.13,8.25-4.72,8.89-9.45,17.77-14.15,26.67-2.65,5.02-5.22,10.09-7.88,15.11-7.93,15-15.88,29.99-23.82,44.99-1.21,2.29-2.45,4.56-3.53,6.92-1.66,3.61-4.36,5.28-8.36,5.27-32.3-.05-64.6-.05-96.9-.06-3.17,0-6.35,0-9.91,0Z"/>
      <path class="d" d="m73.52,200.11c.08,2.14.34,4.11-.05,6.03-5.23,0-10.27.13-15.3-.05-2.46-.09-4.54-1.25-5.72-3.65-1.11-2.26-2.31-4.47-3.49-6.69-5.23-9.84-10.49-19.66-15.69-29.51-6.98-13.22-13.9-26.47-20.86-39.7-3.21-6.11-6.39-12.23-9.7-18.29-1.81-3.32-1.95-6.53-.17-9.86,4.16-7.8,8.33-15.6,12.45-23.43,9.07-17.24,18.1-34.5,27.16-51.75,3.21-6.11,6.42-12.22,9.67-18.3C53.56,1.65,56.15,0,60.02,0c34.32.08,68.64.05,102.96.06,1.5,0,3,0,4.53,0v6.24c-20.4,0-40.6,0-60.8,0-15.17,0-30.35.02-45.52-.04-2.11,0-3.41.6-4.42,2.6-4.25,8.4-8.69,16.72-13.07,25.05-5.82,11.07-11.65,22.14-17.48,33.2-5.77,10.94-11.55,21.87-17.32,32.8-.27.51-.55,1.01-.81,1.52-.62,1.24-.62,2.43.07,3.7,2.73,5.06,5.39,10.16,8.08,15.24,3.87,7.31,7.75,14.61,11.61,21.92,6.81,12.91,13.62,25.82,20.42,38.73,2.95,5.6,5.87,11.21,8.83,16.8.4.75.9,1.45,1.42,2.28h15.02Z"/>
      <path class="d" d="m233.95,125.41c.87,1.92.53,3.43.48,4.93-.15,5.65-2.69,10.27-6.39,14.27-2.82,3.06-6.58,4.41-10.71,4.36-4.47-.05-8.94-.35-13.41-.55-.36-.02-.72-.08-1.08-.09-9.16-.27-18.33-.7-27.49-.07-3.16.22-6.33.47-9.49.69-.35.02-.7-.03-.99-.04-.92-.94-.43-1.78-.07-2.65.49-.18.95-.41,1.43-.52,4.46-1.07,6.18-4.44,6.87-8.47.39-2.26.42-4.6.42-6.9.01-18.39,0-36.77-.06-55.16,0-1.93-.35-3.86-.6-5.78-.42-3.26-4.14-6.86-8.13-7.38-1.84-.24-3.67-.59-5.34-.86q-1.04-1.81-.25-3.5c1.56.18,3.19.39,4.82.56,5.69.61,11.39.65,17.07,0,4.44-.5,8.86-1.28,13.36-.98,1.06.07,2.11.29,3.32.46.13.81.23,1.47.36,2.29-1.18.27-2.14.52-3.11.69-3.55.63-5.66,2.72-6.16,6.26-.21,1.49-.36,3.01-.36,4.52,0,19.04-.03,38.07.07,57.11.02,3.43.11,6.88,1.07,10.27.54,1.9,1.55,3,3.32,3.58.55.18,1.11.36,1.68.39,3.53.19,7.06.41,10.56-.4,1.53-.35,3.14-.39,4.7-.64,7.17-1.14,13.19-4.43,18.03-9.83,1.49-1.67,2.9-3.4,4.39-5.07.44-.49.99-.89,1.67-1.5Z"/>
      <path class="d" d="m5.99,235.75h8.83c.36-2.09.68-4.15.05-6-.91-.6-1.59-1.05-2.47-1.63,1.62-.89,2.77.28,4.02.14,1.18-.13,2.16-1.31,3.62-.55-.65.72-1.26,1.4-2.11,2.34.27,4.75-.32,9.77.41,14.73.98.58,1.77,1.05,2.69,1.59-.39.09-.65.2-.91.2-2.28.01-4.56,0-6.85,0-.08-.14-.17-.28-.25-.42.7-.38,1.4-.75,1.89-1.02v-7.84H6.21c-.62,1.54-.69,4.26-.2,7.5.81.44,1.66.9,2.72,1.47-.52.19-.72.33-.91.33-2.27.02-4.54,0-7,0q1.98-2.76,1.96-6.34c0-3.31,0-6.62,0-10.18-.84-.66-1.81-1.42-2.78-2.17.07-.13.14-.26.21-.38,1.24.24,2.48.67,3.72.66,1.14-.01,2.27-.5,3.54-.45-.52.58-1.04,1.16-1.64,1.82-.15,1.99-.33,4.04.16,6.18Z"/>
      <path class="d" d="m110.42,235.65c.74-2.44.51-5.09-.59-7.24,1.17-.45,2.32-.9,3.62-1.4.11,6.08-.33,12.06.24,17.95.7.45,1.21.78,2.17,1.41h-5.58c.52-3.25.91-6.42.11-9.6-.93-.25-1.68-.52-2.45-.66-1.59-.28-2.65.3-3.27,1.81-.74,1.78-.44,3.56.35,5.21.27.56,1.05.91,1.64,1.27.95.57,1.94,1.08,3.34,1.84-1.29.27-2.04.49-2.8.58-2.79.34-4.96-1.63-5.22-4.46-.22-2.47.86-4.33,2.46-5.97,1.06-1.08,2.46-1.44,3.99-1.17.63.11,1.25.27,1.99.43Z"/>
      <path class="d" d="m165.82,246.44c-1.2.85-2.43.41-3.59,0-1.05-.38-2.04-.65-3.23.05,0-3.13.09-6.06-.02-8.99-.11-2.91.63-5.89-.63-8.84.72-.97,1.7-1.38,3.15-1.24v8.78c1.05-.27,1.89-.36,2.61-.7,3.01-1.43,6.47,2,6.27,4.8-.16,2.26-1.13,3.94-2.68,5.41-.15-.15-.3-.29-.44-.44.86-1.35.96-2.83.83-4.37-.33-3.78-2.88-5.21-6.49-3.44.2,2.41-.3,4.91.23,7.22,1.2,1.27,2.52,1.73,4.01,1.77h0Z"/>
      <path class="d" d="m129.43,244.37v-14.31c-1.04-.63-2.03-1.23-3.01-1.83.05-.12.1-.25.16-.37,1.33.13,2.67.41,3.99.34,1.24-.07,2.45-.53,3.84-.63-2.02,1.39-2.01,3.31-1.96,5.35.09,3.95.03,7.91.03,11.87,1.71,1.29,3.52.71,5.05.26,1.56-.46,2.92-1.61,4.59-2.58-.17,1.83-1.27,2.85-2.3,4.04-1.98,0-3.98,0-5.99,0-1.9,0-3.8,0-5.98,0,.58-.77,1.02-1.37,1.59-2.13Z"/>
      <path class="d" d="m97.45,244.36c.34.61.73,1.29,1.17,2.07h-4.56c.84-1.98.65-3.91.61-5.82-.08-3.48-1.66-4.61-5.43-3.76-.37,2.56-.18,5.19-.19,7.83.62.56,1.19,1.09,1.92,1.76h-4.83c.12-2.82.24-5.58.36-8.41-.48-.62-.96-1.24-1.45-1.87.79-.84,1.89-.63,2.94-.68,1.35-.06,2.72-.03,4.05-.24,2.65-.42,4.19.42,4.74,3.07.39,1.89.44,3.84.67,6.04Z"/>
      <path class="d" d="m68.48,246.44h-6.03c1.3-1.23,1.21-2.59,1.19-3.96-.04-2.67-.03-5.33-.04-8,0-2.14.32-4.32-.87-6.57,1.3-.4,2.41-.73,3.71-1.13v18.17c.53.38,1.16.84,2.05,1.48Z"/>
      <path class="d" d="m40.63,227.82c.95-.41,2.04-1.08,3.28-.75v17.71c.57.49,1.1.96,1.93,1.68h-5.72c1.24-1.93.88-3.92.89-5.86.01-2.16.06-4.32,0-6.47-.06-1.98-.24-3.95-.38-6.3Z"/>
      <path class="d" d="m210.61,244.05c.74.85,1.37,1.56,2.07,2.36-1.71.86-2.87.01-4.09-.61-1.94.09-3.69,1.89-6.15.42-.21-.71-.53-1.76-.79-2.63,1.21-2.07,2.78-2.95,5.13-3.35-1.13,1.42-2.01,2.52-2.86,3.57,1.46,1.8,2,2.01,3.72,1.5.77-1.54.64-3.14.06-4.8.41-1.34.91-2.73-.22-4.28-.42-.08-1.03-.2-1.57-.3-1.25.83-1.52,2.72-3.51,2.51-.03-.35-.24-.84-.08-1.1.38-.58.85-1.24,1.44-1.52,2.23-1.06,4.43-.92,6.51.47.88,2.65.59,5.3.32,7.76Z"/>
      <path class="d" d="m231.75,235.19c3.31.02,6.06,2.6,6.09,5.7.03,3.06-3.11,6.01-6.37,5.97-3.2-.04-6.13-2.76-6.17-5.73-.04-2.96,3.21-5.96,6.44-5.94Zm-1.61.93c-1.3.8-2.23,1.98-2.22,3.61.01,3.03,1.34,5.34,3.96,6.78,2.83-.87,3.83-2.31,3.69-5.14-.17-3.46-2.24-5.5-5.44-5.25Z"/>
      <path class="d" d="m30.07,235.12c3.55.08,5.94,2.45,5.9,5.8-.03,2.68-2.35,6.32-5.99,6-3.95-.34-6.23-2.65-6.06-6.1.16-3.06,3-5.77,6.15-5.7Zm-1.75,1.02c-2.39,1.92-2.09,4.36-1.32,6.72.68,2.1,2.22,3.42,4.44,3.65,3.68-3.3,3.37-7.51-.68-10.43-.44-.02-.94-.08-1.44-.07-.35,0-.7.09-1,.13Z"/>
      <path class="d" d="m179.93,246.85c-3.29.36-6.06-2.8-6.24-5.83-.17-2.9,2.99-5.76,6.29-5.85,3.05-.08,6.13,2.78,6.16,5.73.03,2.81-3.14,5.85-6.21,5.95Zm.44-.36c3.01-1.02,3.85-2.85,3.11-6.6-.52-2.68-2.24-3.95-5.09-3.76-1.09.61-1.94,1.51-2.18,2.76-.56,2.93,1.32,6.79,4.15,7.59Z"/>
      <path class="d" d="m51.97,251.65c-.88-2,.97-2.51,1.08-3.23.67-1.54.38-2.52-.17-3.52-1.07-1.95-1.98-3.99-3.09-5.92-.7-1.21-1.63-2.29-2.61-3.64,1.07.08,2.03.14,3.28.23.46-.09,1.21-.22,2.29-.43-.54,1.11-1.09,1.86-.64,2.95,1.04,2.51,1.7,3.67,3.03,4.46,1.99-2.77,2.26-4.17,1.33-7.25.97-.07,1.91-.14,2.9-.22.06.22.21.47.15.62-2.08,4.8-4.16,9.6-6.29,14.38-.22.48-.68.86-1.26,1.56Z"/>
      <path class="d" d="m269.14,234.96c1.78,1.06,3.18,2.49,3.96,4.86-2.66.18-5.12.31-7.57.2-.81,2.77-.07,3.87,3.81,5.58.92-.55,1.94-1.16,3.19-1.91-.18,1.68-1.25,2.41-2.4,2.79-4.37,1.47-7.26-1.48-7.3-4.55-.02-2.07-.04-4.03,1.7-5.52,1.25-1.07,2.59-1.82,4.6-1.45Zm.93,4.34c-.19-1.14-.34-2.07-.49-2.94-.81-.33-1.39-.56-1.9-.77-2.42,1.12-2.8,2.01-1.78,3.71h4.17Z"/>
      <path class="d" d="m219.19,245.05c1.32.24,2.39.43,3.54.64-1.41,1.25-4.07,1.57-5.18.61-.45-.39-.72-1.04-.92-1.63-.15-.46-.07-1-.09-1.5-.1-2.5-.2-5-.33-7.94.69-.63,1.66-1.5,2.8-2.53.26,1.3.45,2.28.68,3.38,1.07-.31,2.09-1.67,3.17-.1-.85,1.26-1.97.89-3.21.65-.91,2.65-.04,5.39-.46,8.42Z"/>
      <path class="d" d="m155.43,246.25c-1.9.97-3.38-.26-5.02-.33.29-3.26.66-6.46-.05-9.78-.88-.07-1.56-.12-2.12-.17q-1.18,1.99-2.94,2.54c-.19-.17-.4-.36-.6-.54,1.43-3.01,4.54-3.69,8.13-1.74,1.43,2.56.53,5.38.51,8.13.69.62,1.35,1.23,2.09,1.9Z"/>
      <path class="d" d="m79.99,236.38c.94,2.72.09,5.48.43,8.62.38.24,1.05.66,2.02,1.28-1.93.42-3.29.34-4.71-.3-.07-1.65-.13-3.27-.2-4.89-.07-1.52.82-3.11-.73-4.81-.18-.06-.77-.24-1.18-.37-1.55.58-1.59,2.53-3.32,2.71-.21-.17-.47-.39-.71-.59.75-3.11,4.25-3.82,8.4-1.65Z"/>
      <path class="d" d="m278.03,236.34c-.13.53-.25,1.06-.4,1.68.67.38,1.21.71,1.77,1,.38.2.81.3,1.19.5,3.09,1.63,3.53,3.03,1.96,6.42-.45.28-1,.62-1.44.89-4.71.01-5.65-.63-5.31-3.7.88.06,1.1.84,1.47,1.37,1.39,1.96,2.04,2.14,4.29,1.06.48-1.81.07-2.76-1.79-3.42-1.49-.53-2.73-1.27-3.45-2.71-.16-.32-.23-.67-.44-1.29.51-.67,1.09-1.45,1.68-2.22.15.14.3.28.46.43Z"/>
      <path class="d" d="m194.23,235.8c-.76,3.06-.85,6.1-.42,9.13.7.43,1.29.8,1.88,1.17-.02.1-.04.2-.06.3h-5.25c.52-3.41,1.22-6.85-.28-10.34,1.3-.93,2.65-.68,4.12-.26Z"/>
      <path class="d" d="m242.21,235.95c1.31-1.06,2.62-.27,3.99-.18-1.17,2.97-.82,5.97-.8,9,.55.48,1.1.96,1.93,1.68h-5.11c.67-3.56.71-7.03,0-10.5Z"/>
      <path class="d" d="m257.44,244.55c.83.68,1.42,1.17,2.28,1.88h-5.09c.32-3.46.88-6.92-.42-10.47,1.05-.31,1.99-.6,3.23-.97v9.56Z"/>
      <path class="d" d="m76.62,240.44c-1.25,1.11-2.24,1.99-3.46,3.08,1.07.91,2.01,1.71,3.05,2.58-1.26,1.15-2.57.64-3.69.58-1.24-.97-1.53-2.08-1.21-3.52,1.24-1.54,2.75-2.75,5.31-2.72Z"/>
      <path class="d" d="m144.65,243.19c.95-1.57,2.38-2.45,4.12-2.85.11.12.21.24.32.36-.8.96-1.61,1.92-2.56,3.07.85.79,1.65,1.55,2.53,2.37-1.06,1.03-2.22.74-3.33.5-1.09-.96-1.34-2.08-1.07-3.45Z"/>
      <path class="d" d="m254.72,231.09c.04-.58.08-1.26.14-2.17.89-.14,1.65-.26,2.61-.4.15,1.02.26,1.76.35,2.4q-1.38,1.25-3.1.17Z"/>
      <path class="d" d="m194.53,236.05c1.28-.3,2.35-.55,3.28-.77.95.92,1.21,1.72.75,2.65-2.05.51-2.84.18-4.04-1.88Z"/>
      <path class="d" d="m250.46,238.13c-2.14.37-3.15-.64-4.24-1.85,1.27-.73,2.42-1.11,4-.57.07.71.15,1.49.24,2.42Z"/>
      <path class="d" d="m277.57,235.92c1.26-.79,2.63-1.07,4.06-.72,1.31.32,1.53.88,1.01,2.5-.78-.71-1.48-1.35-2.27-2.08-.75.23-1.55.48-2.34.73-.15-.14-.3-.28-.46-.43Z"/>
      <path class="d" d="m167.69,245.72c-.48.61-1.03,1.04-1.87.73h0c.47-.38.95-.78,1.42-1.17.15.15.3.29.44.44Z"/>
    </g>
  </g>
</svg>