<?xml version="1.0" encoding="UTF-8"?>
<svg id="b" data-name="Шар 2" xmlns="http://www.w3.org/2000/svg" viewBox="0 0 575.36 100.06">
  <defs>
    <style>
      .d {
        fill: #fefdfd;
      }
    </style>
  </defs>
  <g id="c" data-name="Шар 1">
    <g>
      <path class="d" d="m340.05,97.99c-4.52,2.84-8.82,1.55-13.51,1.54-.15-2.3-.41-4.41-.41-6.51-.03-27.83-.02-55.65-.02-83.48,0-1.81,0-3.61,0-5.86,1.65-2.02,4.35-2.73,7.21-2.76,7.16-.08,14.49-.97,21.45.21,8.25,1.39,17.27,1.24,24.1,7.54,4.63,4.27,8.93,8.65,8.29,15.75-.27,2.98.03,6-.15,8.99-.36,5.91-3.87,9.95-8.43,13.13-2.64,1.84-5.58,3.25-8.84,5.12,1.98,2.05,3.4,3.91,5.19,5.3,4.04,3.15,6.12,7.54,8.09,12.03,3.2,7.3,6.47,14.57,9.45,21.96.75,1.87.51,4.13.76,6.55-4.12.31-7.69.59-11.89.91-3.05-2.1-4.58-5.95-6.16-9.73-3.3-7.84-5.73-16.08-10.21-23.38-2.15-3.51-4.75-6.55-8.85-8.34-2.48-1.08-4.81-1.02-7.24-1.12-2.65-.11-5.3-.03-8.47-.03-.75,4.8-.23,9.42-.32,14-.09,4.66-.02,9.33-.02,14,0,4.66,0,9.31,0,14.18Zm.61-85.15c-1,7.22-.72,27.83.43,31.5.98.15,2.1.51,3.2.45,5.44-.28,10.91-.41,16.31-1.09,7-.89,13.29-9.33,12.46-16.17-.92-7.55-7.56-14.17-15.2-14.62-5.63-.33-11.29-.06-17.2-.06Z"/>
      <path class="d" d="m411.22,97.21c-.02-31.55,0-62.94,0-94.87,3.95-.55,7.16-1.24,10.39-1.39,4.82-.22,9.66.01,14.49-.07,3.34-.06,6.59.12,9.77,1.35,1.34.52,2.93.64,4.39.58,9.71-.45,18.19,6.8,21.02,14.59.61,1.67.79,3.54.88,5.34.14,2.82-.02,5.66.05,8.49.13,5.68-2.17,10.22-6.6,13.6-2.59,1.97-5.46,3.57-8.15,5.42-.76.52-1.32,1.35-2.14,2.22,1.18.83,2.13,1.47,3.05,2.13,5.27,3.8,7.98,9.45,10.58,15.08,2.82,6.08,5.16,12.38,7.9,18.51,1.42,3.19,1.67,6.32.81,9.75-3.38,1.66-6.96,1.1-10.29.67-2.82-.36-4.03-3.26-5.05-5.72-2.76-6.71-5.26-13.52-8.15-20.17-1.94-4.46-3.87-8.89-7.74-12.35-3.08-2.75-6.53-3.92-10.25-4.4-3.41-.44-6.92-.09-10.89-.09v40.65c-4.78,3.05-9.17,3.23-14.05.71Zm14.19-52.55c7.72-.02,15.02.96,22.13-1.09,5.58-1.61,9.79-6.32,9.61-12.2-.07-2.33.11-4.66-.04-6.98-.22-3.45-1.59-6.01-4.71-8.13-5.57-3.78-11.95-3.22-18.01-4.23-2.84-.47-5.85.03-8.98.09v32.54Z"/>
      <path class="d" d="m540.52,3.17c2.09,4.83,4.02,9.16,5.84,13.54.93,2.24,1.78,4.52,2.49,6.83,3.33,10.79,7.33,21.32,11.8,31.7,2.57,5.97,4.25,12.32,6.58,18.4,2.05,5.35,4.61,10.51,6.63,15.86.9,2.4,1.05,5.08,1.49,7.4-2.02,2.08-3.67,3.25-6.07,2.01-.27-.14-.67-.17-.98-.11-5.83,1.07-7.97-3.01-9.71-7.24-2.29-5.58-4.24-11.31-6.35-17.01-3.54-.96-32.34-1.31-42.56-.47-2.33,7.19-4.7,14.52-7.28,22.49-1.32.66-3.14,1.93-5.15,2.49-1.83.51-3.95.64-5.79.24-2.54-.55-3.66-2.78-2.85-5.35,1.87-5.96,3.75-11.93,5.97-17.77,2.91-7.67,6.26-15.18,9.2-22.84,3.6-9.38,6.97-18.85,10.44-28.28,2.44-6.61,4.83-13.24,7.35-19.82.87-2.27,2.76-4.1,5.09-4.19,4.2-.16,8.66-1.38,12.49,1.64.36.29.92.33,1.36.47Zm-10.78,14.71c-4.63,14.47-10.8,28.31-14.41,43.14,1.06.41,1.66.85,2.27.85,8.81.06,17.63.12,26.44.02,1.09-.01,2.17-.89,3.4-1.43-.84-1.78-1.54-2.92-1.94-4.17-1.6-4.93-2.98-9.92-4.67-14.82-1.91-5.54-3.84-11.09-6.22-16.43-1.11-2.49-1-6.07-4.87-7.17Z"/>
      <path class="d" d="m54.11.04c2.35,0,4.84-.11,7.31.03,3.15.18,4.31,1.49,4.5,4.73.03.5,0,1,0,1.5,0,29.16,0,58.31-.01,87.47,0,1.33,0,2.65,0,4.05-3.5,1.79-7.01.98-10.42.86-1.8-.06-2.4-1.56-2.41-3.22-.01-1.75,0-3.51,0-6.2-2.7,2.01-4.6,3.25-6.29,4.73-5.29,4.65-11.49,5.56-18.35,6-11.19.73-18.05-5-23.79-13.32-.65-.94-1.22-2.03-1.48-3.14C1.88,77.95-.18,72.58.01,66.6c.2-6.48.27-12.88,2.11-19.17,2.49-8.52,7.61-14.92,15.38-19.11,1.69-.91,3.78-1.29,5.73-1.46,9.27-.81,18.26-.29,25.8,6.2.33.29.86.35,1.79.7.12-1.69.3-3.09.31-4.5.02-7.33.09-14.66-.05-21.99-.05-2.65.41-4.92,3.02-7.23Zm-2.98,48.38c-1.72-1.39-3.36-2.34-4.5-3.7-3.61-4.28-8.06-6.44-13.65-7.27-2.79-.41-5.03-.42-7.59.68-5.23,2.24-7.52,6.78-9.22,11.59-2.16,6.15-2.6,12.66-2.02,19.12.59,6.56,2.71,12.6,7.73,17.25,3.6,3.34,10.64,5.2,13.86,3.18,4.18-2.62,8.21-5.55,11.94-8.78,1.62-1.4,3.21-3.82,3.29-5.85.36-8.8.15-17.62.15-26.25Z"/>
      <path class="d" d="m263.19,13.65c0,5.28,0,9.74,0,14.2,0,3.33-.03,6.66,0,9.99.05,4.42.5,4.92,4.83,4.93,8.16.03,16.32,0,24.48-.01,1,0,2-.05,3,.02,3.53.24,4.64,1.61,4.62,5.62-.01,3.9-1.16,5.33-4.84,5.38-8.33.09-16.66.03-24.98.03-1.81,0-3.62,0-5.3,0v34.05h40.08c1.78,3.8,1.12,6.66-.98,9.63-1.22.1-2.51.29-3.81.3-14.66.02-29.32.02-43.97,0-1.16,0-2.41.12-3.46-.25-1.93-.68-3.61-1.78-3.56-4.25.02-1-.06-2-.06-3,0-27.15.01-54.3.03-81.45,0-1.32.12-2.64.18-3.83,3.38-2.85,7.15-3.27,11.26-3.3,7.61-.05,15.21-.81,22.82-.84,6.11-.02,12.21.64,18.32.91,2.45.11,3.61,1.52,3.97,3.68.22,1.29.04,2.65.04,4.07-2.29,3.3-5.55,4.21-9.46,4.15-8.99-.14-17.99-.05-26.98-.05-1.81,0-3.61,0-6.24,0Z"/>
      <path class="d" d="m154.19,60.43c0,2.17-.06,3.34.01,4.5.74,11.48-4.43,20.34-12.58,27.72-1.89,1.71-4.44,3.01-6.91,3.71-7.98,2.26-16.02,3.28-24.44,1.77-4.33-.78-8.29-1.53-11.93-4.15-7.02-5.03-11.51-11.71-13.09-20.1-.85-4.51-.84-9.19-1.06-13.8-.19-3.98.53-7.81,2.33-11.45.63-1.28.33-3.02.95-4.31,4.09-8.5,9.71-15.22,19.47-17.7,4.88-1.24,9.68-2.02,14.68-1.84,2.98.11,5.85.02,8.7,1.5,2.38,1.24,5.25,1,7.92,2.25,6.76,3.16,10.61,8.49,13.7,14.85,2.83,5.82,2.08,11.97,2.23,17.06Zm-13.5,1.4c-.18-.02-.36-.04-.54-.06,0-2-.12-4.01.02-6,.37-5.26-1.84-9.65-4.6-13.83-.71-1.08-1.7-2.27-2.84-2.73-4.4-1.8-8.64-3.88-13.77-3.48-9.88.78-15.54,4.87-18.61,13.06-3.91,10.41-2.92,20.84,2.24,30.7,1.43,2.74,3.16,5.6,6.44,6.65,7.54,2.4,14.93,3.51,22.21-1.25,3.95-2.59,6.87-5.73,7.77-10.32.82-4.2,1.15-8.49,1.69-12.74Z"/>
      <path class="d" d="m204.01,98.48h-14.67V12.84c-2.39,0-4.16,0-5.93,0-6.16,0-12.32.02-18.47,0-6.1-.03-6.9-.87-6.69-6.97.03-.97.26-1.94.45-3.31,1.27-.26,2.52-.73,3.77-.73,22.8-.03,45.6-.02,68.41.01.8,0,1.6.2,2.51.33.25.73.6,1.33.64,1.95.36,6.24.81,9.14-7.9,8.78-7.11-.3-14.24-.06-22.03-.06-.2,14.52-.04,28.61-.07,42.69-.03,14.12,0,28.24,0,42.95Z"/>
      <path class="d" d="m141.94,2.98c.21,3.72.38,6.83.59,10.56-2.68,0-5.32-.45-7.75.08-7.1,1.56-14.25.52-21.36.76-4.27.14-8.56-.03-12.82-.34-1.1-.08-2.9-1.06-3.03-1.86-.51-2.96-1.62-6.06.12-9.2h44.26Z"/>
    </g>
  </g>
</svg>