<?xml version="1.0" encoding="UTF-8"?>
<svg id="b" data-name="Шар 2" xmlns="http://www.w3.org/2000/svg" viewBox="0 0 444 111.81">
  <defs>
    <style>
      .d {
        fill: #fefdfd;
      }
    </style>
  </defs>
  <g id="c" data-name="Шар 1">
    <g>
      <path class="d" d="m444,56.8c-.39.09-.79.25-1.18.24-3.76-.06-7.53-.17-11.29-.22-.92-.01-1.32-.08-1.6-1.23-.71-3-1.77-5.92-2.75-8.85-.74-2.23-1.6-4.41-2.35-6.64-.21-.61-.44-.91-1.17-.92-5.05-.05-10.1-.13-15.16-.24-.89-.02-1.45.14-1.76,1.1-1.58,4.8-3.23,9.57-4.86,14.36-.27.79-.3,1.86-.84,2.31-.48.39-1.53.1-2.32.11-1.49,0-2.98,0-4.66,0,.11-.49.15-.91.31-1.29,1.98-4.79,4-9.57,5.96-14.37,1.68-4.12,3.31-8.27,4.92-12.42,3.12-8.04,6.21-16.1,9.3-24.15.13-.33.29-.67.33-1.02.32-2.64,1.99-3.14,4.3-2.8.89.13,1.82.02,2.65.02,1.4,3.79,2.77,7.51,4.14,11.22,1.85,4.99,3.66,9.99,5.57,14.96,1.98,5.16,4.03,10.3,6.11,15.43,1.82,4.49,3.7,8.96,5.59,13.42.13.3.49.49.75.74v.25Zm-21.71-23.86c-2.06-5.68-4.07-11.23-6.08-16.78-.15-.03-.3-.06-.45-.08-2.1,5.58-4.19,11.15-6.34,16.86h12.87Z"/>
      <path class="d" d="m109,111.81c0-.21.02-.41.02-.62-.05-1.6-.05-1.55,1.58-1.6,2.91-.08,3.6-.55,3.62-3.58.05-7.34.02-14.68.02-22.12h2.72c-.07.75-.2,1.53-.2,2.3.06,5.8.2,11.59.21,17.39,0,1.73-.16,3.49-.53,5.18-.24,1.12-.87,2.23-2.35,2.34-.21.02-.39.45-.59.7h-4.49Z"/>
      <path class="d" d="m109.52,56.81c-3.68,0-7.19,0-10.69,0-.29,0-.59-.04-.87,0-1.33.18-1.83-.2-1.38-1.45.41-1.17.27-2.25.24-3.41-.05-1.96.17-3.93.21-5.89.1-4.98.13-9.97.26-14.95.03-1.03-.28-1.32-1.32-1.32-6.17-.03-12.35-.16-18.52-.21-1.43-.01-2.86.18-4.36.28,0,3.9-.03,7.73.01,11.56.03,3.04.12,6.08.25,9.12.08,1.66.29,3.32.48,4.97.15,1.35-.11,1.42-1.52,1.34-2.49-.15-5-.08-7.49-.03-1.24.02-2.48.19-3.81.3-.38-4.62,1.05-9.22.16-13.83,1.17-4.67.38-9.41.47-14.11.1-4.73-.16-9.46-.29-14.19-.13-4.71-.3-9.42-.45-14.2,4.31.79,8.55.73,12.86,0-.06,1.02-.12,1.97-.16,2.93-.16,4.38-.34,8.76-.46,13.14-.05,1.81.04,3.63,0,5.45-.02.72.11,1.04.94,1.03,7.41-.02,14.82,0,22.23.01.66,0,1.03-.14.96-.9-.11-1.3-.2-2.6-.23-3.91-.04-2.1.07-4.21-.04-6.31-.09-1.76-.43-3.51-.58-5.28-.04-.47.35-.98.33-1.46-.04-1.42-.19-2.84-.3-4.32h12.43c-.04,9.32-.14,18.61-.11,27.89.03,9.28-.37,18.56.75,27.76Z"/>
      <path class="d" d="m151.45,29.28c5.19,9.53,11.23,18.51,16.74,27.65-4.1-.05-8.06-.33-11.97-.03-1.74.13-2.17-.43-2.84-1.7-2.47-4.67-5.1-9.25-7.65-13.88-1.57-2.85-3.09-5.72-4.66-8.57-.35-.63-.79-1.21-1.36-2.07-.26.54-.5.8-.5,1.05.06,5.31.11,10.63.25,15.94.07,2.69.32,5.38.48,8.07.02.4,0,.81,0,1.17h-12.77c.15-2.57.3-5.13.45-7.69.03-.49.07-.98.07-1.47,0-11.02.04-22.05-.02-33.07-.02-3.6-.29-7.2-.47-10.79-.05-1-.2-1.99-.29-2.82,3.41.07,6.65.23,9.89.18,3.13-.05,6.27-.56,9.38-.4,3.75.19,7.65,0,11.08,1.95,3.75,2.13,5.59,5.5,6.17,9.72.44,3.2-.13,6.19-1.42,9.07-1.42,3.16-4.06,5.04-7.11,6.43-1.02.47-2.11.77-3.45,1.25Zm-12.16-23.9c0,7.29-.02,14.29.04,21.3,0,.38.61,1.06.95,1.07,1.26.05,2.57.06,3.78-.25,5.3-1.37,7.28-4.56,7.58-9.03.15-2.28-.06-4.58-.25-6.87-.18-2.16-1.26-3.82-3.23-4.85-2.72-1.43-5.75-.66-8.87-1.37Z"/>
      <path class="d" d="m376.39,39.6c0-4.07.03-7.82,0-11.57-.06-6.44-.13-12.87-.25-19.31-.05-2.52-.26-5.04-.39-7.59h6.63c0,2.04.02,4.23,0,6.42-.02,1.22-.2,2.44-.19,3.66.01,2.13.2,4.25.16,6.37-.03,1.61-.32,3.21-.43,4.83-.13,1.88-.24,3.76-.25,5.64-.02,9.19,0,18.38.02,27.58,0,1,.05,1.57-1.39,1.24-1.31-.3-2.78.16-4.16.03-.64-.06-1.37-.62-1.81-1.15-2.29-2.76-4.46-5.62-6.76-8.37-3.29-3.92-6.65-7.79-10.02-11.65-2.22-2.54-4.51-5-6.76-7.51-2-2.23-3.98-4.48-5.98-6.7-1.02-1.13-2.07-2.24-3.13-3.33-.17-.18-.46-.24-.88-.44,0,1.71,0,3.22,0,4.72,0,7.72-.04,15.44-.02,23.16,0,2.91.13,5.83.25,8.74.03.85.24,1.69.36,2.53h-7.39c.15-1.87.3-3.77.44-5.67.12-1.5.26-3.01.33-4.51.11-2.17.19-4.34.23-6.51.11-6.26.22-12.52.26-18.78.04-5.5.02-11-.02-16.5,0-1.25-.21-2.51-.34-3.96.81.12,1.43.3,2.05.29,1.31-.02,2.63-.08,3.94-.23.92-.1,1.6.19,2.17.85,1.73,2.02,3.44,4.05,5.18,6.06,1.89,2.18,3.81,4.34,5.7,6.52,2.1,2.41,4.19,4.83,6.29,7.24.78.9,1.61,1.76,2.4,2.65,2.19,2.47,4.35,4.97,6.57,7.42,2.31,2.55,4.67,5.06,7.21,7.82Z"/>
      <path class="d" d="m46.83,47.15c-.57,2.11-1.21,3.83-1.46,5.59-.26,1.81-1.39,2.47-2.89,2.91-2.43.71-4.82,1.74-7.31,2.06-3.86.5-7.77,1.11-11.67-.1-2.56-.79-5.33-1.06-7.75-2.12-5.2-2.27-9.44-5.72-12.16-10.87C1.01,39.74-.18,34.57.02,29.11c.25-6.89,2.05-13.39,6.25-18.98,3.15-4.19,7.46-6.85,12.52-8.37C23.55.33,28.42-.23,33.34.1c4.43.29,8.75,1.25,12.78,3.24.72.36.87.69.63,1.53-.56,2.01-.91,4.07-1.35,6.12-.08.39-.19.77-.36,1.43-.5-.42-.92-.69-1.23-1.06-2.47-2.91-5.19-5.4-9.14-6.16-4.9-.95-9.38-.22-13.43,2.89-4.19,3.21-6.2,7.62-7.52,12.49-1.24,4.59-.93,9.3-.63,13.92.19,2.94,1.08,6.06,2.48,8.67,2.74,5.11,6.96,8.94,12.92,9.84,4.84.73,9.57-.25,13.73-3.08,1.01-.69,1.95-1.49,2.96-2.17.37-.25.87-.32,1.64-.58Z"/>
      <path class="d" d="m209.9,43.8c.48.6.97.99,1.17,1.49.83,2.07,1.85,4.05,3.69,5.37,1.71,1.23,3.46,2.5,5.8,2.43,1.93-.06,3.82-.02,5.67-.76,2.77-1.11,4.81-3.74,5.02-7.01.32-5.07-3.06-7.43-6.76-9.56-3.16-1.82-6.47-3.36-9.6-5.22-3.22-1.91-5.33-4.89-6.5-8.33-1.45-4.24-.89-8.5.91-12.6,1.28-2.91,3.3-5.11,5.91-6.93,2.05-1.44,4.34-2,6.71-2.38,4.01-.64,8-.31,11.84.99,1.29.44,2.43,1.32,3.64,1.99.68.38.67.86.43,1.54-.66,1.86-1.2,3.76-1.87,5.62-.17.48-.6.86-.92,1.29-.29-.38-.66-.73-.87-1.15-1.61-3.21-3.83-5.41-7.75-5.64-2.38-.14-4.61-.16-6.59,1.29-3.46,2.53-4.62,7.23-1.22,10.85,2.72,2.89,6.23,4.5,9.69,6.2,4.13,2.03,7.95,4.37,10.36,8.48,1.06,1.8,1.69,3.63,1.89,5.77.31,3.28-.08,6.33-1.31,9.35-1.73,4.26-4.88,7.08-8.95,9.05-2.64,1.28-5.44,1.72-8.31,2.13-4.14.59-7.92-.61-11.73-1.8-.75-.23-1.41-.78-2.09-1.23-.46-.31-.62-2.05-.28-2.52.14-.19.36-.42.35-.62-.12-2.09,1.42-3.93.89-6.11-.11-.47.4-1.09.78-2.01Z"/>
      <path class="d" d="m290.4.86c-.1.72-.18,1.39-.3,2.06-.26,1.45-.41,2.88.19,4.3.04.1-.48.66-.72.64-2.54-.16-5.07-.41-7.6-.6-1.8-.14-3.61-.23-5.64-.35.31,16.67-.45,33.22.58,49.89-.87,0-1.64-.02-2.42,0-3.22.08-6.44.19-9.65.23-.19,0-.45-.45-.56-.73-.07-.19.09-.47.1-.7.1-3.45.24-6.91.26-10.36.06-9.74.08-19.47.1-29.21,0-2.52-.07-5.03-.07-7.55,0-1.01-.25-1.58-1.46-1.49-3.85.3-7.7.52-11.55.76-.45.03-.91,0-1.36,0V.91c13.27.58,26.61.64,40.1-.05Z"/>
      <path class="d" d="m180.21.81c4.23.83,8.37.46,12.72.17-.13,1.82-.34,3.48-.34,5.14-.03,14.36-.03,28.72,0,43.08,0,1.58.32,3.15.43,4.73.06.86.07,1.73,0,2.58-.02.2-.53.52-.79.49-3.46-.37-6.92-.31-10.38.04-.45.05-.91,0-1.54,0,.9-18.75.69-37.45-.11-56.24Z"/>
      <path class="d" d="m303.6.79c4.31.81,8.44.56,12.8.16-.1,1.47-.19,2.8-.28,4.12-.02.24-.07.49-.08.73-.03,10.71-.07,21.42-.08,32.13,0,2.98,0,5.96.09,8.94.1,3.18.33,6.36.42,9.54,0,.2-.75.62-1.14.62-2.85-.03-5.69-.17-8.54-.2-.93-.01-1.87.18-2.93.29.67-18.78.78-37.49-.26-56.32Z"/>
      <path class="d" d="m269.23,83.55c-1.02,2.5-1.94,4.81-2.91,7.11-1.58,3.76-3.19,7.51-4.81,11.25-.23.54-.62,1.37-1,1.41-.87.08-1.78-.22-2.67-.42-.17-.04-.32-.32-.39-.52-1.4-3.66-2.79-7.33-4.19-10.99-.39-1.01-.8-2.01-1.19-3.01-.21,0-.42,0-.63,0-.5,1.19-1.02,2.37-1.49,3.57-1.37,3.53-2.72,7.07-4.06,10.62-.26.69-.74,1-1.42.81-.69-.19-1.74-.34-1.95-.81-2.67-6.15-5.22-12.36-7.89-18.77.88,0,1.65-.07,2.39.04.3.04.66.44.79.76,1.16,2.82,2.27,5.65,3.41,8.48.91,2.27,1.84,4.53,2.92,6.81,1.62-5.29,4.46-10.14,5.56-15.94.99-.16,2.24-.35,3.46-.54,2.21,5.61,4.33,11.02,6.56,16.69,2.14-5.38,4.15-10.49,6.23-15.56.18-.43.84-.79,1.35-.94.53-.16,1.15-.04,1.94-.04Z"/>
      <path class="d" d="m357.48,84.12c-3.01,2.26-6.02,4.52-9.19,6.9,3.49,4.06,6.96,8.08,10.45,12.13-2.07.73-3.34.25-4.63-1.32-1.87-2.29-3.87-4.47-5.81-6.7-.43-.49-.77-1.12-1.3-1.46-.41-.26-1.18-.38-1.57-.17-1.06.6-2.08,1.32-2.96,2.16-.47.45-.83,1.21-.88,1.85-.12,1.56-.09,3.14,0,4.7.05.85-.3,1.28-1.04,1.32-1.48.08-1.73-.19-1.73-1.41,0-8.5-.02-17.01-.03-25.51,0-.12.04-.24.07-.43h2.62v17.01c.74-.47,1.3-.78,1.81-1.17,2.53-1.91,5.09-3.78,7.55-5.78,1.24-1,2.3-2.23,3.98-2.47.83-.12,1.67-.1,2.51-.15.05.16.11.32.16.47Z"/>
      <path class="d" d="m181.27,89.21c-1.25.12-2.3.33-3-1.33-.76-1.79-2.65-2.48-4.54-2.56-2.07-.09-4.17-.21-6.15.71-1.96.91-2.1,2.63-.72,4.24,1.32,1.55,3.12,1.2,4.67,1.62,2.15.58,4.51.4,6.66.99,1.72.47,3.53,1.25,4.09,3.36.63,2.4-.62,5.3-2.88,6.33-3.75,1.7-7.64,1.75-11.58.8-2.49-.6-4.36-1.98-5.19-4.5-.14-.43-.22-.88-.36-1.41h2.63c.77,2.79,2.74,4.36,5.82,4.38,2,0,4.03-.13,5.99-.5,1.61-.3,2.91-1.62,2.88-3.28-.03-1.52-.68-2.5-2.33-2.81-2.31-.44-4.65-.76-6.99-1.04-1.97-.24-3.83-.63-5.5-1.82-1.73-1.24-1.92-2.81-1.51-4.67.57-2.57,2.51-3.63,4.8-4.13,2.3-.51,4.65-.54,6.99-.06.69.14,1.41.15,2.1.3,2.09.46,4.41,2.94,4.1,5.38Z"/>
      <path class="d" d="m387.77,89.09c-1.98.44-1.88.39-2.79-1.27-.42-.76-1.26-1.53-2.07-1.81-2.92-1.01-5.89-1.12-8.87,0-1.35.5-1.74,1.49-1.85,2.7-.1,1.15.64,1.89,1.63,2.2,1.46.45,2.97.74,4.46,1.05,2.62.54,5.27.93,7.86,1.58,1.85.46,2.87,3.15,2.44,5.32-.63,3.21-3.15,4.2-5.78,4.75-3.46.73-7.04.68-10.31-.78-1.25-.56-2.12-2.03-3.06-3.17-.39-.48-.51-1.17-.75-1.77,1.2-.91,2.49-.63,2.98.69.92,2.5,3.17,3.06,5.35,3.26,2.01.18,4.09-.12,6.1-.44,2.28-.37,3.35-2.12,2.72-4.32-.17-.6-.81-1.35-1.38-1.5-1.83-.49-3.73-.71-5.6-1.08-2.24-.44-4.51-.81-6.7-1.42-3.02-.85-3.18-5.23-1.73-7.17,1.5-1.99,3.71-2.44,5.89-2.51,2.66-.08,5.4.05,7.96.67,1.83.44,2.94,2.23,3.37,4.18.06.26.08.52.13.86Z"/>
      <path class="d" d="m291.08,83.2c2.83-.18,5.42.63,7.82,1.95.81.45,1.5,1.3,1.99,2.12.92,1.55,1.73,3.15,1.72,5.09-.01,2.42-.12,4.76-1.48,6.89-1.54,2.43-3.84,3.76-6.53,4.34-3.81.82-7.59.48-10.83-1.81-1.23-.87-2.15-2.34-2.87-3.72-2.06-3.95-1.36-7.77,1.17-11.23,1.33-1.82,3.36-2.84,5.61-3.25,1.12-.2,2.27-.26,3.4-.38Zm.31,2.11c-.25,0-.5-.01-.75,0-2.68.14-5.13.88-6.61,3.27-.74,1.2-1.26,2.61-1.57,3.99-.59,2.64,1.14,6.64,3.86,8.1,2.33,1.25,4.77,1.53,7.32.96,5.26-1.16,7.02-5.35,6.29-9.82-.72-4.39-4.2-6.55-8.55-6.5Z"/>
      <path class="d" d="m147.41,83.84h3.07v19.47h-2.88v-3.12c-.75.58-1.59,1.3-2.49,1.91-3.44,2.33-9.2,2.8-12.66-.21-1.35-1.17-2.11-2.81-2.11-4.77,0-3.77-.19-7.54-.26-11.31-.01-.6.13-1.2.22-1.91h2.71c0,1.8,0,3.64,0,5.49,0,2.35-.02,4.71-.02,7.06,0,2.67,1.17,4.5,3.6,5.12,2.93.75,5.89.57,8.4-1.24,1.41-1.01,2.34-2.66,2.4-4.43.13-3.98.04-7.96.04-12.06Z"/>
      <path class="d" d="m73.8,83.75v-6.43c1.04.12,1.95.22,2.97.34v5.89c1.33,0,2.56,0,3.79,0q1.8,0,1.72,2.07c-1.77.09-3.56.18-5.45.27,0,1.8,0,3.6,0,5.4,0,2.72.03,5.45,0,8.17-.02,1.16.68,1.73,1.61,1.89.92.16,1.9-.05,2.85-.02.35.01.96.2.98.36.07.65.54,1.78-.37,1.85-2.04.15-4.18.51-6.13-.6-1.34-.76-1.87-2-1.89-3.42-.06-3.84-.03-7.68-.04-11.52,0-2.15-.99-2.89-3.11-2.42-.4.09-1.22-.02-1.24-.15-.09-.52-.04-1.12.15-1.62.05-.14.72-.08,1.11-.08.99,0,1.97,0,3.06,0Z"/>
      <path class="d" d="m196.3,77.71c.99-.13,1.8-.24,2.76-.36,0,1.76.05,3.49-.02,5.2-.04.96.23,1.34,1.25,1.28,1.45-.08,2.9-.02,4.43-.02v1.93h-5.6c0,.98,0,1.87,0,2.75,0,3.51.02,7.02.01,10.53,0,1.2,1.13,2.38,2.34,2.39,1.04,0,2.08.01,3.12.02.03,0,.06.05.21.17,0,.27-.02.63,0,.98.05.77-.23,1.15-1.08,1.09-1.51-.12-3.03-.14-4.54-.27-1.22-.11-3.02-1.89-3.01-3.04.05-4.49.16-8.98.25-13.47,0-.32,0-.65,0-1.07-.95,0-1.86,0-2.77,0-2.08,0-2.22-.21-1.53-2.01,1.07,0,2.09-.04,3.1.01.8.04,1.11-.23,1.09-1.06-.05-1.68-.01-3.37-.01-5.05Z"/>
      <path class="d" d="m318.17,103.4c-.53,0-1.02,0-1.51,0-1.55,0-1.73-.29-1.23-1.78.13-.37.11-.81.11-1.21,0-5.47,0-10.95,0-16.52h2.73v3.9c1.36-1.31,2.53-2.84,4.06-3.81,1.53-.98,3.46-1.06,5.44-.88,0,.57-.01,1.09,0,1.61.05,1.34-.17,1.4-1.56,1.2-3.73-.53-7.71,1.47-7.88,6.06-.13,3.67-.04,7.35-.05,11.02,0,.08-.04.15-.12.4Z"/>
      <path class="d" d="m55.2,76.16h2.69c0,1.33,0,2.64,0,3.94,0,7.35-.05,14.69.03,22.04.01,1.44-.8,1.2-1.66,1.28-1.09.1-1-.48-1-1.28.01-7.88-.03-15.76-.05-23.64,0-.74,0-1.47,0-2.34Z"/>
      <path class="d" d="m114.28,76.14h2.4v3.92h-2.4v-3.92Z"/>
    </g>
  </g>
</svg>