<?xml version="1.0" encoding="UTF-8"?>
<svg id="b" data-name="Шар 2" xmlns="http://www.w3.org/2000/svg" viewBox="0 0 7.17 7.2">
  <defs>
    <style>
      .d {
        fill: #323232;
      }
    </style>
  </defs>
  <g id="c" data-name="Шар 2">
    <path class="d" d="m5.54,7.2c-.24,0-.43-.04-.63-.09-.35-.09-.69-.23-1.01-.39-.55-.27-1.06-.61-1.52-1.01-.17-.15-.33-.31-.5-.47-.45-.44-.82-.94-1.15-1.48-.27-.44-.48-.91-.62-1.4C.04,2.16,0,1.94,0,1.72c0-.24.03-.48.16-.68.06-.09.13-.18.21-.27.16-.16.32-.33.48-.48.07-.07.15-.13.24-.19.26-.16.55-.13.79.06.12.1.23.21.34.32.21.21.42.42.63.64.09.09.17.19.22.32.09.24.05.46-.11.65-.17.19-.36.37-.54.56-.02.02-.05.05-.07.07-.02.02-.02.03,0,.05.1.22.23.42.38.61.37.46.77.87,1.25,1.21.14.1.3.18.45.26.03.01.04,0,.05-.02.17-.17.33-.33.5-.5.11-.11.24-.2.39-.23.22-.05.42,0,.59.16.14.12.27.25.4.38.19.19.39.39.58.58.11.11.19.23.22.38.05.2,0,.38-.11.55-.09.13-.21.23-.32.35-.09.09-.18.18-.27.28-.19.2-.41.35-.69.39-.09.01-.17.02-.23.03Zm-.02-.37s.04,0,.06,0c.21,0,.39-.07.54-.22.18-.18.35-.35.52-.53.05-.05.09-.1.12-.16.07-.11.07-.23,0-.35-.04-.06-.09-.11-.14-.16-.26-.26-.53-.52-.79-.79-.04-.04-.08-.08-.13-.12-.11-.08-.25-.09-.36,0-.08.06-.15.12-.22.19-.15.15-.3.3-.45.45-.11.1-.23.12-.36.05-.25-.13-.5-.27-.72-.44-.26-.2-.5-.41-.72-.65-.22-.23-.42-.47-.59-.73-.12-.17-.21-.35-.29-.53-.05-.13-.04-.25.06-.35.04-.04.07-.07.11-.11.16-.16.33-.32.49-.49.13-.14.13-.3.01-.45-.02-.02-.03-.04-.05-.06-.18-.18-.35-.35-.53-.53-.13-.13-.26-.26-.4-.39-.09-.09-.19-.13-.32-.1-.08.02-.15.06-.21.12-.19.19-.37.37-.56.56-.12.13-.2.28-.22.45-.02.13-.01.26,0,.4.02.17.06.34.11.5.12.41.31.79.53,1.15.18.31.4.6.63.89.37.46.78.87,1.25,1.23.33.25.68.48,1.05.67.28.14.56.28.85.37.24.07.48.12.72.12Z"/>
  </g>
</svg>