<?xml version="1.0" encoding="UTF-8"?>
<svg id="b" data-name="Шар 2" xmlns="http://www.w3.org/2000/svg" viewBox="0 0 7.17 7.17">
  <defs>
    <style>
      .d {
        fill: #323232;
      }
    </style>
  </defs>
  <g id="c" data-name="Шар 2">
    <g>
      <path class="d" d="m3.58,7.17C1.61,7.17,0,5.56,0,3.58,0,1.6,1.61,0,3.6,0c1.97,0,3.57,1.62,3.57,3.6,0,1.96-1.62,3.57-3.59,3.57Zm0-6.69c-1.71,0-3.11,1.39-3.11,3.1,0,1.71,1.39,3.11,3.1,3.11,1.71,0,3.11-1.39,3.11-3.1,0-1.71-1.39-3.11-3.1-3.11Z"/>
      <path class="d" d="m3.34,2.63c0-.31,0-.63,0-.94,0-.08.07-.19.14-.23.06-.03.19-.02.24.03.06.06.1.17.1.26,0,.53,0,1.05,0,1.58,0,.1.03.16.1.22.32.25.64.51.96.77.1.08.15.18.11.3-.05.16-.24.2-.39.09-.32-.25-.63-.53-.97-.76-.24-.17-.34-.36-.31-.65.02-.22,0-.45,0-.67h0Z"/>
    </g>
  </g>
</svg>