<?xml version="1.0" encoding="UTF-8"?>
<svg id="b" data-name="Шар 2" xmlns="http://www.w3.org/2000/svg" viewBox="0 0 8.96 9.07">
  <defs>
    <style>
      .d {
        fill: #323232;
      }
    </style>
  </defs>
  <g id="c" data-name="Шар 2">
    <g>
      <path class="d" d="m4.34,0c.68.01,1.3.13,1.87.4,1.34.62,2.21,1.64,2.6,3.07.11.4.15.82.14,1.23-.03,1.05-.39,1.97-1.08,2.76-.68.77-1.53,1.24-2.54,1.41-.88.15-1.72.04-2.54-.31-.2-.08-.38-.2-.57-.29-.02,0-.05-.01-.07,0-.61.26-1.23.52-1.84.78-.17.07-.3-.03-.32-.15,0-.05,0-.1.02-.15.11-.3.22-.6.33-.9.12-.33.24-.65.37-.98.01-.04.01-.07,0-.1-.32-.51-.52-1.06-.63-1.65-.06-.38-.09-.75-.05-1.13.03-.35.1-.69.22-1.02C.71,1.65,1.6.75,2.91.26c.34-.13.7-.2,1.06-.23.14-.01.28-.02.36-.03ZM.6,8.46s.03-.01.05-.02c.48-.21.97-.41,1.45-.62.1-.04.18-.04.27.02.13.08.26.15.39.22.42.22.87.35,1.34.41.43.05.85.04,1.27-.04.63-.12,1.2-.38,1.69-.78.18-.14.34-.3.49-.47.42-.47.7-1.01.86-1.62.08-.3.11-.6.11-.91,0-.3,0-.6-.07-.9-.28-1.28-1.01-2.22-2.15-2.85-.66-.36-1.37-.5-2.11-.46-.5.02-.98.13-1.43.34-.88.4-1.52,1.05-1.93,1.92-.18.39-.29.81-.34,1.24-.05.46-.01.92.09,1.37.11.46.29.9.56,1.29.07.1.08.19.04.31-.19.49-.36.98-.55,1.47,0,.02-.01.04-.02.07Z"/>
      <path class="d" d="m5.91,7.06c-.51-.02-.93-.15-1.33-.34-.5-.23-.95-.56-1.33-.95-.5-.51-.9-1.08-1.14-1.76-.09-.26-.15-.52-.17-.8-.02-.21.02-.41.12-.59.19-.35.45-.62.82-.79.09-.04.19-.06.29-.05.15.01.27.08.35.21.16.25.31.51.47.77.05.08.09.16.12.24.09.19.07.37-.08.51-.13.12-.26.24-.4.36-.08.07-.09.07-.04.16.07.14.15.28.25.4.24.3.5.58.82.8.11.08.23.13.35.19.05.02.08.01.11-.03.11-.14.23-.28.35-.4.14-.15.31-.19.51-.11.08.03.15.07.22.11.25.15.49.31.75.46.28.16.33.48.2.72-.22.41-.52.71-.97.85-.1.03-.21.04-.26.05Zm-.09-.44s.06,0,.09,0c.03,0,.07,0,.1-.01.35-.1.58-.34.75-.64.05-.09.03-.1-.05-.15-.16-.1-.32-.19-.49-.29-.12-.07-.24-.14-.36-.22-.04-.03-.07-.02-.11.02-.09.11-.18.22-.28.33-.05.06-.11.12-.17.16-.08.06-.17.08-.27.06-.21-.04-.4-.13-.58-.25-.44-.3-.81-.68-1.11-1.13-.1-.15-.18-.3-.22-.47-.03-.15,0-.27.1-.38.05-.05.09-.1.14-.14.09-.08.19-.16.29-.24.07-.06.07-.07.03-.15-.16-.28-.33-.55-.49-.82-.05-.09-.07-.09-.16-.05-.04.02-.08.04-.12.06-.16.1-.28.24-.39.39-.11.15-.16.31-.14.5.02.21.05.42.12.62.21.62.57,1.15,1.03,1.62.32.33.69.61,1.1.83.37.2.76.35,1.2.37Z"/>
    </g>
  </g>
</svg>